<svg width="1140" height="590" viewBox="0 0 1140 590" fill="none" xmlns="http://www.w3.org/2000/svg">
<path fill-rule="evenodd" clip-rule="evenodd" d="M5.96047 6.04459C94.4645 13.7134 147.742 17.8078 165.793 18.3279C192.87 19.108 311.063 9.92117 344.374 9.92117C377.685 9.92117 549.362 -0.0043335 583.656 -0.0043335C617.949 -0.0043335 890.754 9.92117 924.261 9.92117C946.599 9.92117 1018.51 6.61267 1140 -0.0043335C1125.32 84.37 1117.98 132.65 1117.98 144.837C1117.98 163.117 1138.93 225.462 1140 252.953C1141.07 280.443 1123.55 407.015 1123.55 433.937C1123.55 451.885 1127.06 501.305 1134.08 582.196C899.947 564.098 769.232 555.049 741.931 555.049C700.979 555.049 509.029 589.211 476.851 590C444.672 590.789 285.491 563.804 244.053 563.804C216.427 563.804 135.077 572.536 4.7463e-05 590C7.75658 511.138 11.6348 462.197 11.6348 443.175C11.6348 414.642 -0.476792 292.82 4.7463e-05 268.495C0.476887 244.17 17.4832 165.55 17.4832 144.837C17.4832 131.028 13.6423 84.7641 5.96047 6.04459Z" fill="#FFEEF2"/>
</svg>
