<svg width="60" height="60" viewBox="0 0 60 60" fill="none" xmlns="http://www.w3.org/2000/svg">
<path d="M30.1241 58.5062C36.2897 58.5062 41.6237 55.3059 46.2787 51.9534C53.4609 46.7808 58.5125 39.5524 58.5125 30C58.5125 22.7228 55.2777 16.4896 50.8085 11.4523C45.6091 5.59183 38.5554 1.49377 30.1241 1.49377C22.174 1.49377 14.8283 3.85084 9.67482 9.13853C4.66498 14.2788 1.73564 22.2395 1.73564 30C1.73564 31.8624 0.181804 42.5013 6.24285 49.4906C11.6598 55.7372 24.3823 58.5062 30.1241 58.5062Z" stroke="#002E8C" stroke-width="2"/>
<path d="M28.6934 29.0117H30.0508C30.9036 28.9987 31.5742 28.7741 32.0625 28.3379C32.5508 27.9017 32.7949 27.3125 32.7949 26.5703C32.7949 24.9036 31.9648 24.0703 30.3047 24.0703C29.5234 24.0703 28.8984 24.2949 28.4297 24.7441C27.9674 25.1868 27.7363 25.776 27.7363 26.5117H25.9297C25.9297 25.3854 26.3398 24.4512 27.1602 23.709C27.987 22.9603 29.0352 22.5859 30.3047 22.5859C31.6458 22.5859 32.6973 22.9408 33.459 23.6504C34.2207 24.36 34.6016 25.3464 34.6016 26.6094C34.6016 27.2279 34.3997 27.8268 33.9961 28.4062C33.599 28.9857 33.0553 29.4186 32.3652 29.7051C33.1465 29.9525 33.7487 30.3626 34.1719 30.9355C34.6016 31.5085 34.8164 32.2083 34.8164 33.0352C34.8164 34.3112 34.3997 35.3236 33.5664 36.0723C32.7331 36.821 31.6491 37.1953 30.3145 37.1953C28.9798 37.1953 27.8926 36.834 27.0527 36.1113C26.2194 35.3887 25.8027 34.4349 25.8027 33.25H27.6191C27.6191 33.9987 27.8633 34.5977 28.3516 35.0469C28.8398 35.4961 29.4941 35.7207 30.3145 35.7207C31.1868 35.7207 31.8542 35.4928 32.3164 35.0371C32.7786 34.5814 33.0098 33.9271 33.0098 33.0742C33.0098 32.2474 32.7559 31.6126 32.248 31.1699C31.7402 30.7272 31.0078 30.4993 30.0508 30.4863H28.6934V29.0117Z" fill="#002E8C"/>
</svg>
