<svg width="61" height="62" viewBox="0 0 61 62" fill="none" xmlns="http://www.w3.org/2000/svg">
<path d="M30.1241 59.5062C36.2897 59.5062 41.6237 56.3059 46.2787 52.9534C53.4609 47.7808 58.5125 40.5524 58.5125 31C58.5125 23.7228 55.2777 17.4896 50.8085 12.4523C45.6091 6.59183 38.5554 2.49377 30.1241 2.49377C22.174 2.49377 14.8283 4.85084 9.67482 10.1385C4.66498 15.2788 1.73564 23.2395 1.73564 31C1.73564 32.8624 0.181804 43.5013 6.24285 50.4906C11.6598 56.7372 24.3823 59.5062 30.1241 59.5062Z" stroke="#002E8C" stroke-width="3"/>
<path d="M31.5039 38H29.6875V25.959L26.0449 27.2969V25.6562L31.2207 23.7129H31.5039V38Z" fill="#002E8C"/>
</svg>
