<svg width="179" height="104" viewBox="0 0 179 104" fill="none" xmlns="http://www.w3.org/2000/svg">
<path d="M12.427 2.20904C11.8635 2.12879 11.2983 2.74165 11.1638 3.57758L8.97752 17.2021C8.84395 18.0384 9.19149 18.781 9.75501 18.8613C10.3196 18.9417 10.8847 18.3288 11.0193 17.4929L12.9621 5.38208L21.1271 6.54465C21.6906 6.62491 22.2568 6.01223 22.3903 5.17612C22.5249 4.34003 22.1764 3.5972 21.6128 3.51695L12.427 2.20904ZM24.8637 27.6088L24.0323 28.6942C24.0477 28.7197 24.0643 28.7443 24.0811 28.7678L24.8637 27.6088ZM53.5228 42.3276L52.7357 43.4802L52.7356 43.4803L53.5228 42.3276ZM54.0675 56.1375L53.2897 57.3035L53.2898 57.3037L54.0675 56.1375ZM80.113 76.0566C80.6497 76.2629 81.2618 75.7702 81.48 74.956C81.6982 74.1419 81.4399 73.3145 80.9031 73.1082L80.113 76.0566ZM11.2912 4.69058C13.0343 8.40931 18.0754 18.7898 24.0323 28.6942L25.6942 26.5232C19.7995 16.7234 14.8021 6.43295 13.078 2.75525L11.2912 4.69058ZM54.3101 41.175C53.2228 39.6195 51.9446 38.7133 50.7292 38.6504C50.1142 38.6187 49.4704 38.8039 48.8912 39.3152C48.295 39.8417 47.8523 40.6406 47.6082 41.6042C47.1454 43.4311 47.4171 45.7028 48.2797 48.1926C49.164 50.7451 50.7598 53.7962 53.2897 57.3035L54.8451 54.9715C52.3994 51.5807 50.9477 48.7524 50.1821 46.5426C49.3948 44.27 49.4145 42.8959 49.5676 42.2914C49.6315 42.039 49.7137 41.9258 49.7931 41.8556C49.8896 41.7705 50.0721 41.6749 50.368 41.6901C50.9742 41.7216 51.8555 42.2211 52.7357 43.4802L54.3101 41.175ZM53.2898 57.3037C60.4075 67.171 70.6467 72.4179 80.113 76.0566L80.9031 73.1082C71.4874 69.4889 61.6273 64.3734 54.8451 54.9714L53.2898 57.3037ZM24.0811 28.7678C30.839 38.2944 39.0316 43.3203 45.1103 45.3341C48.1286 46.3341 50.7174 46.6223 52.3917 46.2688C52.817 46.1791 53.2271 46.0396 53.59 45.8239C53.9368 45.6178 54.3565 45.2734 54.6565 44.6774C54.9996 43.9955 55.0592 43.2427 54.9367 42.6034C54.8271 42.032 54.5792 41.56 54.3101 41.175L52.7356 43.4803C52.9034 43.7202 52.9175 43.826 52.9086 43.7798C52.8866 43.6653 52.8857 43.3847 53.0206 43.1166C53.1124 42.9343 53.1763 42.9451 53.0335 43.03C52.9067 43.1054 52.693 43.1925 52.3746 43.2597C51.0739 43.5343 48.7643 43.3329 45.8375 42.3633C40.0264 40.4381 32.1412 35.6043 25.6464 26.4498L24.0811 28.7678Z" fill="#002E8C"/>
<path d="M97.558 63.9038C98.7369 63.8005 99.7102 63.424 100.478 62.7742C101.267 62.0982 101.763 61.5329 101.966 61.0782C102.195 60.6455 102.267 59.9473 102.183 58.9837C102.114 58.1888 101.879 57.4447 101.479 56.7515C101.103 56.0562 100.691 55.6433 100.243 55.5126C99.9921 55.4132 99.6918 55.306 99.3423 55.191C99.7062 54.9163 100.067 54.6056 100.425 54.2587C101.343 52.8432 101.469 51.3636 100.8 49.8201C99.7415 47.4126 97.623 46.3359 94.4449 46.59C93.5065 46.6722 92.8961 46.7621 92.6137 46.8597C92.3334 46.9813 92.0066 47.2648 91.6334 47.7102C91.304 48.1031 91.1091 48.5086 91.0487 48.9265C90.9861 49.3204 90.9526 50.1851 90.948 51.5205C90.9516 52.3941 90.9966 53.3247 91.0829 54.3124C91.186 55.4927 91.3457 56.7653 91.562 58.1299C91.9252 60.6226 92.2582 62.0742 92.5607 62.4846C93.2161 63.3253 94.4335 63.8012 96.2131 63.9124C96.7007 63.9425 97.1489 63.9396 97.558 63.9038ZM94.1245 54.9926C93.9079 55.0116 93.6903 55.0185 93.4717 55.0134C93.3769 53.9294 93.2953 52.8563 93.2267 51.7943C93.1603 50.7563 93.2713 49.9456 93.5597 49.362C93.8785 48.8486 94.3988 48.5603 95.1206 48.497C95.3853 48.4739 95.6652 48.4858 95.9602 48.5327C96.6727 48.6402 97.309 48.985 97.869 49.5671C98.4509 50.123 98.7693 50.7141 98.824 51.3404C98.882 52.282 98.362 53.1286 97.2639 53.8802C96.3259 54.5206 95.2794 54.8915 94.1245 54.9926ZM96.9855 61.5144C96.0953 61.5924 95.433 61.5048 94.9987 61.2515C94.7172 61.082 94.5167 60.869 94.3973 60.6124C94.2779 60.3558 94.1909 59.9144 94.1361 59.2881C94.0583 58.3968 94.1322 57.8563 94.3581 57.6666C94.562 57.503 95.2864 57.3304 96.5313 57.1485L96.8561 57.1201C97.6741 57.0484 98.3396 57.1722 98.8524 57.4914C99.4154 57.8304 99.7306 58.3854 99.7979 59.1562L99.8042 59.2285C99.8505 59.7585 99.834 60.124 99.7546 60.3252C99.6752 60.5263 99.4383 60.7291 99.0441 60.9336C98.5379 61.2449 97.8517 61.4386 96.9855 61.5144ZM108.309 63.9452C109.055 63.8799 109.769 63.5867 110.45 63.0658C111.47 62.2483 112.184 61.1298 112.594 59.7103C112.819 58.9623 112.867 57.8416 112.736 56.348C112.703 55.9626 112.655 55.5541 112.593 55.1226C112.336 53.0091 111.983 51.7534 111.536 51.3556C111.166 50.9997 110.836 50.8344 110.548 50.8597C110.355 50.8765 110.17 50.9777 109.992 51.1632C109.819 51.3968 109.873 52.715 110.156 55.1176C110.237 55.8008 110.3 56.3857 110.345 56.8722L110.379 57.2652C110.414 57.6956 110.431 58.0276 110.431 58.2613C110.431 58.8196 110.317 59.3151 110.088 59.7478C109.736 60.434 109.331 60.9428 108.876 61.274C108.58 61.4941 108.299 61.6157 108.035 61.6389C106.952 61.7338 106.14 59.7902 105.598 55.8082C105.48 55.0174 105.375 54.3712 105.283 53.8696C105.166 53.37 105.035 52.981 104.89 52.7024C104.768 52.4218 104.631 52.2396 104.478 52.1559C104.304 52.0984 104.111 52.1152 103.901 52.2065C103.623 52.3522 103.448 52.7074 103.376 53.272C103.33 53.8586 103.369 54.8625 103.493 56.2838C103.702 58.6686 104.101 60.4663 104.692 61.6768C105.307 62.8852 106.158 63.6117 107.246 63.8562C107.618 63.945 107.972 63.9747 108.309 63.9452ZM117.034 61.6153C117.588 61.5668 117.898 61.2362 117.966 60.6234C117.987 60.306 117.964 59.7739 117.899 59.0271C117.842 58.3767 117.746 57.5477 117.609 56.5402C117.324 54.1135 117.078 52.5451 116.871 51.8351C116.765 51.456 116.529 51.2581 116.164 51.2416L116.056 51.251C115.743 51.2784 115.468 51.4603 115.231 51.7967C115.017 52.1309 115.015 53.4904 115.223 55.8753L115.283 56.5619C115.499 58.7519 115.706 60.1538 115.905 60.7674C116.105 61.3811 116.481 61.6637 117.034 61.6153ZM123.029 61.7456C123.39 61.7139 123.69 61.542 123.929 61.2298C124.173 60.9657 124.28 60.665 124.25 60.3278C124.244 60.2555 124.225 60.1722 124.192 60.078C124.058 59.6528 123.792 59.3848 123.395 59.274C122.923 59.1454 122.562 58.8979 122.311 58.5314C122.109 58.1607 121.945 57.5318 121.819 56.6448C121.669 55.7598 121.49 54.2584 121.28 52.1406C120.924 48.3366 120.6 46.3016 120.31 46.0357C120.018 45.7457 119.728 45.6134 119.439 45.6387C119.175 45.6619 118.961 45.8505 118.798 46.2046C118.599 46.7075 118.614 48.818 118.842 52.5363L119.079 55.2463C119.262 57.3421 119.447 58.6246 119.633 59.0937C120.093 60.1943 120.804 60.9816 121.767 61.4556C122.247 61.6805 122.668 61.7772 123.029 61.7456ZM130.516 61.8908C131.021 61.8465 131.473 61.7463 131.871 61.59C132.34 61.4033 132.799 61.1082 133.249 60.7047C133.666 60.207 133.972 59.8282 134.168 59.5683C134.882 60.5253 135.51 60.9193 136.053 60.7504C136.622 60.6034 136.878 60.2048 136.821 59.5543C136.785 59.1448 136.632 58.6364 136.361 58.029C136.011 57.3557 135.65 56.1372 135.277 54.3736C134.907 52.634 134.66 51.0536 134.536 49.6323C134.477 47.5742 134.161 46.1697 133.586 45.419C133.278 45.2275 132.991 45.1313 132.724 45.1304C132.484 45.1515 132.251 45.2689 132.028 45.4827C131.782 45.7227 131.651 46.0255 131.634 46.391C131.611 46.6843 131.604 46.8791 131.612 46.9755C131.597 47.074 131.606 47.3159 131.64 47.7013C131.687 47.9642 131.719 48.192 131.736 48.3847C131.731 48.6036 131.766 48.8676 131.841 49.1765C131.893 49.4876 131.917 49.7646 131.914 50.0076C131.933 50.2244 131.962 50.4161 132 50.5826C131.18 50.6302 130.553 50.6609 130.117 50.6747C128.812 50.7163 127.867 51.0053 127.284 51.5419C126.63 52.1089 126.144 52.7827 125.824 53.5632C125.506 54.3677 125.381 55.4346 125.449 56.7637C125.444 56.9827 125.451 57.2005 125.47 57.4173C125.527 58.0677 125.637 58.6406 125.802 59.136C126.005 59.7978 126.281 60.3198 126.63 60.7019C127.059 61.1741 127.498 61.4876 127.948 61.6423C128.42 61.7709 129.156 61.8643 130.155 61.9224L130.516 61.8908ZM130.177 59.2625C129.453 59.3016 128.878 59.1092 128.453 58.6852C128.031 58.2853 127.792 57.7722 127.737 57.1459L127.731 57.0736C127.634 55.4072 127.946 54.2633 128.667 53.6418C129.047 53.2687 129.536 53.0438 130.136 52.967L130.28 52.9543C130.81 52.908 131.245 53.0397 131.588 53.3496C131.994 53.5568 132.303 54.0395 132.514 54.7977C132.555 54.9883 132.584 55.1799 132.601 55.3727C132.641 55.8304 132.63 56.2561 132.567 56.65C132.495 57.2146 132.4 57.6478 132.281 57.9495C132.122 58.3518 131.869 58.653 131.523 58.8533C131.179 59.0776 130.73 59.214 130.177 59.2625ZM97.2965 82.9696C99.4139 82.7841 100.451 81.8922 100.409 80.2939C100.42 80.1472 100.42 80.0137 100.41 79.8933C100.38 79.556 100.308 79.2832 100.193 79.0748C100.047 78.7963 99.7228 78.412 99.2194 77.9221C98.3255 77.1265 97.4584 76.4986 96.6181 76.0381C95.6972 75.4877 95.2178 74.9956 95.1799 74.562C95.1336 74.0321 95.3625 73.5994 95.8665 73.2639C96.3466 72.9306 96.9527 72.7925 97.6851 72.8498C98.4174 72.907 98.8562 72.7957 99.0015 72.516C99.1468 72.2362 98.9787 71.8383 98.4972 71.3222C98.046 70.8762 97.4224 70.676 96.6263 70.7214L96.4458 70.7372C95.7 70.8026 95.019 71.0564 94.4031 71.4987C93.4692 72.1874 92.9707 73.1413 92.9075 74.3606C92.8684 75.5777 93.2874 76.4877 94.1644 77.0905C96.7451 78.8792 98.045 79.8819 98.064 80.0987C98.0892 80.3878 97.8503 80.5665 97.3471 80.6349C96.8439 80.7032 96.1487 80.6549 95.2615 80.4899C94.1054 80.2998 93.4536 80.3327 93.3063 80.5883C93.161 80.868 93.1109 81.1273 93.156 81.3661C93.1897 81.7515 93.4509 82.1049 93.9396 82.4262C94.7318 82.8908 95.8147 83.0751 97.1883 82.9791L97.2965 82.9696ZM106.464 81.9482C106.704 81.9271 106.955 81.8809 107.215 81.8095C107.758 81.6406 108.238 81.3073 108.655 80.8095C109.074 80.3359 109.231 79.9095 109.125 79.5304C109.086 79.3638 109.016 79.2487 108.913 79.1848C108.835 79.1189 108.675 79.0964 108.435 79.1175C108.216 79.1124 107.891 79.1409 107.46 79.2029C106.767 79.3122 106.308 79.3402 106.085 79.2869C105.887 79.2315 105.674 79.0195 105.448 78.6509C104.929 77.7012 104.545 76.6424 104.298 75.4747C105.131 75.3046 105.764 75.1885 106.195 75.1265C107.243 74.9133 107.96 74.6563 108.346 74.3555C108.596 74.1637 108.711 73.9594 108.692 73.7426C108.68 73.598 108.607 73.4587 108.474 73.3247C108.437 73.1823 108.295 73.0855 108.048 73.0343C107.823 72.9569 107.517 72.923 107.13 72.9327C106.741 72.9182 106.365 72.9148 106.002 72.9223C105.615 72.9319 105.205 72.9557 104.772 72.9936C104.337 73.0075 104.022 73.0108 103.827 73.0036C103.953 69.4485 103.619 67.7058 102.825 67.7754C102.68 67.788 102.507 67.8881 102.306 68.0757C101.764 68.5358 101.497 69.9186 101.504 72.2239C101.517 72.9267 101.551 73.5913 101.606 74.2176C101.734 75.6871 101.992 76.9753 102.38 78.0822C102.932 79.6845 103.609 80.7781 104.412 81.3632C105.01 81.8206 105.694 82.0156 106.464 81.9482ZM112.851 81.1702C113.044 81.1533 113.197 81.1035 113.311 81.0207C113.493 80.8834 113.468 79.7689 113.237 77.6773C112.97 75.1762 113.101 73.4778 113.628 72.582C114.182 71.7081 115.214 71.4478 116.724 71.801C118.308 72.172 119.067 71.9721 118.999 71.2012C118.934 70.4545 118.196 69.9123 116.784 69.5747C116.19 69.4326 115.64 69.3836 115.135 69.4279C114.509 69.4827 113.932 69.6789 113.404 70.0164C112.826 70.3341 112.449 70.5977 112.273 70.8073C112.12 70.9907 111.862 70.9526 111.5 70.693C111.087 70.4136 110.73 70.3478 110.428 70.4956C110.219 70.6109 110.115 70.9357 110.113 71.4699L110.166 72.0842C110.23 72.8069 110.366 73.9479 110.575 75.5074C110.964 78.5804 111.234 80.2802 111.384 80.6069C111.503 80.8635 111.797 81.0319 112.265 81.1123C112.487 81.1656 112.683 81.1849 112.851 81.1702ZM125.767 79.347C126.296 79.3007 126.82 79.1941 127.339 79.0273C128.351 78.6717 129.141 78.1412 129.709 77.436C130.474 76.471 130.848 75.2002 130.831 73.6239C130.836 73.405 130.83 73.1992 130.813 73.0064C130.702 71.7297 130.306 70.672 129.627 69.8334C128.677 68.6786 127.424 68.0723 125.868 68.0144C125.478 68 125.152 68.0043 124.887 68.0275C124.67 68.0465 124.503 68.0733 124.385 68.1079C124.054 68.2097 123.642 68.4885 123.149 68.9444C121.809 69.9842 120.953 71.285 120.58 72.8469C120.401 73.5666 120.339 74.2516 120.396 74.902C120.485 75.6467 120.705 76.3557 121.055 77.029C121.77 78.2771 122.866 79.0307 124.344 79.2897C124.811 79.3701 125.286 79.3892 125.767 79.347ZM125.546 76.8176C124.752 76.8872 124.163 76.8053 123.779 76.5719C123.393 76.3144 123.11 75.8537 122.931 75.1898C122.888 74.9751 122.857 74.7593 122.838 74.5425C122.754 73.5789 123.073 72.5193 123.796 71.3636C124.135 70.7999 124.625 70.4414 125.266 70.2882C125.384 70.2536 125.504 70.231 125.624 70.2204C126.105 70.1783 126.576 70.2948 127.037 70.57C127.547 70.8651 127.934 71.4017 128.195 72.1798C128.325 72.5568 128.407 72.9381 128.441 73.3235C128.475 73.7089 128.459 74.0865 128.394 74.4563C128.291 75.2178 128.013 75.7763 127.559 76.1316C127.107 76.511 126.436 76.7397 125.546 76.8176ZM142.018 78.6518C142.523 78.6075 142.784 78.2691 142.802 77.6364L142.767 77.239C142.704 76.5163 142.495 75.3695 142.139 73.7985C141.738 71.9888 141.334 70.6892 140.926 69.8996C140.541 69.108 140.001 68.4756 139.305 68.0026C138.712 67.5933 138.066 67.4193 137.368 67.4804C136.743 67.5352 136.072 67.7639 135.355 68.1665C133.228 69.348 132.311 71.613 132.603 74.9615C132.631 75.2747 132.671 75.5988 132.725 75.934C132.893 77.3028 133.12 78.2417 133.407 78.7506C133.696 79.2836 134.074 79.4447 134.54 79.2339C134.843 79.0861 134.923 78.2052 134.782 76.5912C134.521 73.6041 134.87 71.6316 135.829 70.6737C136.92 69.5587 137.846 69.4776 138.608 70.4303C138.815 70.5821 139.222 71.9058 139.828 74.4015C140.456 76.871 140.838 78.1968 140.976 78.379C141.189 78.603 141.536 78.694 142.018 78.6518ZM148.883 84.1675C151.457 83.942 153.136 82.8968 153.918 81.032C154.242 80.2997 154.356 79.1003 154.259 77.4339L154.205 76.8196C154.083 75.4225 153.85 74.1442 153.506 72.9849C153.167 71.8738 152.858 70.9784 152.581 70.2988C152.223 69.262 151.698 68.3856 151.005 67.6695C150.31 66.9294 149.666 66.5003 149.074 66.3822C148.53 66.2599 148.006 66.2209 147.5 66.2652C146.658 66.339 145.909 66.6473 145.254 67.1902C144.214 68.058 143.528 69.2226 143.195 70.6839C143.091 71.1543 143.058 71.6183 143.098 72.076C143.157 72.7505 143.373 73.4113 143.744 74.0584C144.371 75.1202 145.206 75.7995 146.25 76.0964C147.32 76.4153 148.476 76.1806 149.716 75.3923C150.244 75.0547 150.633 74.7901 150.883 74.5983C151.17 75.1071 151.408 75.8874 151.597 76.9389C151.762 77.9925 151.697 78.9205 151.404 79.723C151.15 80.4249 150.791 80.8933 150.326 81.1282C149.862 81.363 149.264 81.4519 148.531 81.3946C148.02 81.3666 147.325 81.1847 146.447 80.849C145.602 80.6075 145.14 81.012 145.062 82.0626C145.07 83.5426 146.344 84.2442 148.883 84.1675ZM147.652 73.8254C147.604 73.8296 147.554 73.8218 147.504 73.8019C147.141 73.8094 146.858 73.7614 146.655 73.6578C146.35 73.4904 146.111 73.2564 145.939 72.9559C145.741 72.6334 145.625 72.2674 145.589 71.8579C145.509 70.9425 145.793 70.1772 146.443 69.562C146.89 69.1344 147.278 68.8577 147.607 68.7318C147.723 68.6731 147.841 68.6385 147.961 68.6279C148.154 68.6111 148.351 68.6424 148.551 68.7219C148.831 68.8673 149.103 69.2076 149.368 69.7427C149.615 70.3522 149.759 70.8857 149.799 71.3434C149.814 71.5121 149.815 71.6697 149.804 71.8164C149.752 72.3307 149.407 72.8221 148.769 73.2906C148.359 73.5935 147.987 73.7718 147.652 73.8254ZM160.913 76.3777C161.178 76.3545 161.369 76.3256 161.488 76.291C161.77 76.1934 162.088 75.9471 162.441 75.552C162.836 75.0805 163.025 74.7363 163.006 74.5195C162.976 74.1823 162.114 74.0272 160.419 74.0543C159.114 74.0958 158.234 74.0151 157.78 73.8121C157.301 73.6113 157 73.2129 156.875 72.617C156.798 72.2839 156.816 72.076 156.93 71.9932C157.044 71.9104 157.451 71.8505 158.151 71.8135C159.99 71.7737 161.43 71.0529 162.471 69.6509C163.104 68.843 163.387 68.0656 163.322 67.3189C163.299 67.0539 163.226 66.7811 163.105 66.5004C162.783 65.8732 161.855 65.5175 160.321 65.4335C159.931 65.4191 159.556 65.4276 159.195 65.4593C158.209 65.5457 157.397 65.8231 156.759 66.2917C156.167 66.7319 155.659 67.4439 155.236 68.4276C154.813 69.4114 154.583 70.3903 154.547 71.3644C154.529 71.7059 154.532 72.0212 154.557 72.3103C154.801 75.1046 156.497 76.4732 159.644 76.4161C160.153 76.42 160.576 76.4072 160.913 76.3777ZM158.118 69.7773C157.781 69.8068 157.547 69.7666 157.417 69.6567C157.338 69.5907 157.295 69.5096 157.286 69.4132C157.278 69.3169 157.305 69.2173 157.369 69.1147C157.468 68.8632 157.675 68.5903 157.989 68.2958C158.438 67.8923 159.024 67.6589 159.746 67.5957C160.468 67.5325 160.844 67.6815 160.876 68.0429C160.899 68.3079 160.578 68.6516 159.911 69.074C159.269 69.4944 158.671 69.7288 158.118 69.7773ZM168.706 76.2777C168.899 76.2608 169.052 76.211 169.166 76.1282C169.348 75.9909 169.323 74.8764 169.092 72.7848C168.825 70.2837 168.955 68.5853 169.483 67.6895C170.037 66.8156 171.069 66.5553 172.579 66.9086C174.163 67.2795 174.921 67.0796 174.854 66.3087C174.789 65.562 174.05 65.0198 172.639 64.6822C172.044 64.5401 171.495 64.4912 170.989 64.5354C170.364 64.5902 169.787 64.7864 169.259 65.1239C168.68 65.4416 168.303 65.7052 168.128 65.9148C167.974 66.0982 167.716 66.0601 167.354 65.8005C166.942 65.5211 166.584 65.4553 166.282 65.6031C166.074 65.7185 165.969 66.0432 165.967 66.5774L166.021 67.1917C166.084 67.9144 166.22 69.0555 166.429 70.615C166.819 73.6879 167.089 75.3877 167.238 75.7144C167.358 75.971 167.651 76.1394 168.119 76.2198C168.342 76.2731 168.538 76.2924 168.706 76.2777ZM99.2913 101.219C99.5319 101.198 99.7824 101.151 100.043 101.08C100.586 100.911 101.066 100.578 101.483 100.08C101.902 99.6065 102.059 99.1801 101.953 98.801C101.914 98.6345 101.844 98.5193 101.741 98.4554C101.662 98.3895 101.503 98.3671 101.262 98.3881C101.044 98.383 100.719 98.4115 100.288 98.4735C99.5943 98.5828 99.1361 98.6108 98.9132 98.5575C98.7144 98.5021 98.502 98.2901 98.2758 97.9215C97.7564 96.9718 97.3729 95.913 97.1254 94.7453C97.9591 94.5752 98.5915 94.4591 99.0225 94.3971C100.071 94.1839 100.788 93.9269 101.174 93.6261C101.423 93.4343 101.539 93.23 101.52 93.0132C101.507 92.8686 101.435 92.7294 101.302 92.5954C101.265 92.4529 101.123 92.3561 100.876 92.3049C100.651 92.2275 100.345 92.1937 99.9582 92.2033C99.569 92.1888 99.1929 92.1854 98.8299 92.1929C98.4428 92.2025 98.0327 92.2263 97.5996 92.2642C97.1644 92.2781 96.8495 92.2814 96.6549 92.2742C96.7807 88.7192 96.4466 86.9764 95.6526 87.046C95.5082 87.0586 95.3351 87.1587 95.1333 87.3463C94.5916 87.8064 94.3245 89.1892 94.332 91.4945C94.3449 92.1973 94.3788 92.8619 94.4335 93.4882C94.5619 94.9577 94.8199 96.2459 95.2076 97.3528C95.7598 98.9551 96.4372 100.049 97.24 100.634C97.8376 101.091 98.5213 101.286 99.2913 101.219ZM109.202 99.5496C109.466 99.5265 109.658 99.4976 109.776 99.4629C110.058 99.3654 110.376 99.1191 110.73 98.724C111.125 98.2524 111.313 97.9083 111.294 97.6915C111.265 97.3542 110.403 97.1991 108.708 97.2262C107.402 97.2677 106.522 97.187 106.068 96.9841C105.59 96.7832 105.288 96.3848 105.164 95.7889C105.086 95.4559 105.104 95.248 105.218 95.1652C105.332 95.0824 105.739 95.0224 106.439 94.9854C108.278 94.9457 109.718 94.2248 110.76 92.8228C111.392 92.0149 111.676 91.2376 111.61 90.4908C111.587 90.2258 111.515 89.953 111.393 89.6724C111.072 89.0451 110.144 88.6895 108.609 88.6055C108.22 88.591 107.845 88.5996 107.484 88.6312C106.497 88.7176 105.685 88.9951 105.047 89.4636C104.455 89.9039 103.948 90.6158 103.525 91.5996C103.102 92.5833 102.872 93.5623 102.836 94.5364C102.817 94.8779 102.82 95.1931 102.846 95.4822C103.09 98.2766 104.785 99.6452 107.932 99.588C108.442 99.5919 108.865 99.5792 109.202 99.5496ZM106.407 92.9492C106.07 92.9787 105.836 92.9385 105.705 92.8286C105.627 92.7627 105.583 92.6815 105.575 92.5852C105.566 92.4888 105.594 92.3893 105.658 92.2866C105.757 92.0352 105.963 91.7622 106.277 91.4677C106.727 91.0642 107.312 90.8309 108.034 90.7677C108.756 90.7044 109.133 90.8535 109.164 91.2148C109.188 91.4798 108.866 91.8235 108.2 92.246C107.558 92.6664 106.96 92.9008 106.407 92.9492ZM118.112 100.59C118.618 100.545 119.315 100.339 120.204 99.9695C121.095 99.6245 121.606 99.3733 121.738 99.2162C122.098 98.8934 122.398 98.4423 122.638 97.8629C122.925 97.2553 123.053 96.6493 123.025 96.0449C123.043 95.9706 123.048 95.8972 123.042 95.825C122.989 95.2227 122.823 94.4242 122.542 93.4293C122.065 91.5777 121.5 90.2436 120.846 89.4269C120.167 88.5883 119.196 88.1636 117.935 88.1527L117.321 88.2065C116.888 88.2444 116.518 88.3132 116.212 88.4129C115.763 88.5493 115.374 88.8139 115.045 89.2069C114.65 89.6784 114.411 90.1363 114.328 90.5804C114.222 91.0267 114.264 91.3749 114.456 91.6252C114.841 92.1497 115.37 91.9578 116.042 91.0493C116.459 90.5516 116.932 90.2675 117.459 90.197C118.012 90.1485 118.464 90.3274 118.815 90.7336C119.063 91.076 119.217 91.3173 119.278 91.4577C119.339 91.598 119.311 91.6975 119.195 91.7562C119.079 91.8149 118.853 91.859 118.516 91.8885C117.361 91.9897 116.323 92.6025 115.403 93.7268C114.507 94.8491 114.111 96.0004 114.214 97.1808C114.307 98.2408 114.72 99.0905 115.455 99.7301C116.192 100.394 117.078 100.68 118.112 100.59ZM117.826 98.1389C117.657 98.1536 117.511 98.1422 117.386 98.1045C116.986 97.9696 116.733 97.567 116.626 96.8967L116.613 96.7522C116.588 96.4631 116.615 96.218 116.695 96.0169C116.818 95.7633 117.067 95.4259 117.443 95.0047C118.064 94.3434 118.591 93.9938 119.024 93.9559C119.409 93.9222 119.72 94.1498 119.956 94.6388C120.187 95.0556 120.329 95.5771 120.384 96.2034C120.416 96.5648 120.354 96.8372 120.201 97.0205C120.047 97.2039 119.691 97.4293 119.132 97.6967C118.598 97.962 118.162 98.1094 117.826 98.1389ZM132.366 97.8483C132.919 97.7998 133.275 97.5745 133.434 97.1722C133.569 96.772 133.582 95.9456 133.472 94.6929C133.359 93.3921 133.37 92.2745 133.507 91.3401C133.619 90.4078 133.838 89.8667 134.165 89.7168C134.419 89.5731 134.808 89.7211 135.331 90.1608C135.852 90.5763 136.234 91.0647 136.477 91.626C136.629 91.9768 136.907 92.9356 137.31 94.5023C137.883 96.6126 138.65 97.48 139.611 97.1045C140.009 96.9482 140.232 96.7224 140.279 96.427C140.297 96.3526 140.298 96.2311 140.283 96.0625C140.243 95.6048 140.063 94.7832 139.741 93.5976C139.337 92.0309 138.946 90.8879 138.568 90.1685C138.269 89.5151 137.702 88.8607 136.869 88.2055C136.06 87.5481 135.374 87.1835 134.81 87.1115C134.272 87.0615 133.7 87.1723 133.093 87.4439C132.511 87.7134 132.105 88.0645 131.876 88.4972C131.665 88.8555 131.529 89.0981 131.467 89.2249C130.917 88.7632 130.511 88.4105 130.247 88.1666C129.746 87.7007 129.344 87.4082 129.043 87.2889C128.744 87.1938 128.317 87.1704 127.764 87.2189C127.211 87.2674 126.807 87.3634 126.553 87.5071C126.277 87.6769 125.92 88.0358 125.483 88.5839C124.282 90.097 123.775 91.9255 123.962 94.0695C123.994 94.4308 124.052 94.8141 124.135 95.2195C124.335 96.3914 124.561 97.1727 124.813 97.5632C125.067 97.9779 125.408 98.1301 125.835 98.0199C126.121 97.9705 126.289 97.8101 126.338 97.5388C126.385 97.2434 126.403 96.4772 126.392 95.2403C126.343 93.5696 126.479 92.2105 126.799 91.163C127.215 89.8158 127.758 89.3677 128.428 89.8188C128.687 90.0145 129.064 90.7218 129.559 91.9408C130.079 93.1817 130.472 94.3488 130.737 95.4422C130.942 96.3952 131.156 97.044 131.38 97.3885C131.628 97.7309 131.957 97.8841 132.366 97.8483ZM145.835 97.3604C147.952 97.1749 148.989 96.283 148.946 94.6847C148.958 94.538 148.958 94.4045 148.948 94.284C148.918 93.9468 148.846 93.6739 148.731 93.4656C148.585 93.187 148.261 92.8028 147.757 92.3129C146.863 91.5173 145.996 90.8893 145.156 90.4289C144.235 89.8784 143.756 89.3864 143.718 88.9528C143.672 88.4228 143.9 87.9901 144.405 87.6547C144.885 87.3213 145.491 87.1833 146.223 87.2405C146.955 87.2977 147.394 87.1865 147.539 86.9067C147.685 86.627 147.517 86.2291 147.035 85.7129C146.584 85.267 145.96 85.0667 145.164 85.1122L144.984 85.128C144.238 85.1933 143.557 85.4472 142.941 85.8895C142.007 86.5782 141.509 87.5321 141.445 88.7513C141.406 89.9684 141.825 90.8784 142.702 91.4813C145.283 93.27 146.583 94.2727 146.602 94.4895C146.627 94.7786 146.388 94.9573 145.885 95.0256C145.382 95.094 144.687 95.0456 143.799 94.8806C142.643 94.6906 141.992 94.7234 141.844 94.9791C141.699 95.2588 141.649 95.5181 141.694 95.7569C141.728 96.1423 141.989 96.4957 142.478 96.817C143.27 97.2816 144.353 97.4659 145.726 97.3698L145.835 97.3604Z" fill="#002E8C" stroke="#002E8C" stroke-width="0.6"/>
</svg>
