<svg width="118" height="40" viewBox="0 0 118 40" fill="none" xmlns="http://www.w3.org/2000/svg">
<g clip-path="url(#clip0)">
<path d="M28.5 40C26.0147 40 24 37.9853 24 35.5C24 33.0147 26.0147 31 28.5 31C30.9853 31 33 33.0147 33 35.5C33 37.9853 30.9853 40 28.5 40Z" fill="#FF6743"/>
<path opacity="0.396676" d="M17.2023 32.3345C8.36452 32.3345 1.20005 25.0962 1.20005 16.1672C1.20005 7.23832 8.36452 0 17.2023 0C26.0401 0 33.2046 7.23832 33.2046 16.1672C33.2046 25.0962 26.0401 32.3345 17.2023 32.3345Z" fill="#FF6743"/>
<path d="M45.8615 15.1059C45.8615 13.5007 47.0768 12.6195 49.7315 12.6195C52.1942 12.6195 53.6015 13.5322 53.6334 15.578H58.0471C58.0471 11.4549 54.8808 9 49.7954 9C44.806 9 41.4478 11.5179 41.4478 15.2003C41.4478 23.7926 53.9533 19.9213 53.9533 24.8627C53.9533 26.4993 52.45 27.3805 49.8274 27.3805C46.9169 27.3805 45.4137 26.3104 45.4137 24.3591H41C41 28.6395 44.1664 31 49.6035 31C54.8168 31 58.335 28.6395 58.335 24.8627C58.335 15.9557 45.8615 19.8269 45.8615 15.1059ZM75.057 27.2547C74.7052 27.3805 74.5452 27.412 74.2574 27.412C73.8096 27.412 73.5218 27.0973 73.5218 26.4678V21.495C73.5218 17.5923 71.091 15.2318 66.5174 15.2318C62.4555 15.2318 59.705 17.1516 59.4491 20.6452H63.415C63.5749 19.3233 64.6304 18.505 66.2935 18.505C68.2765 18.505 69.268 19.5751 69.268 21.1803V21.8727H67.253C62.9673 21.8727 59.0333 22.9742 59.0333 26.7511C59.0333 29.3004 60.8883 30.9685 64.3425 30.9685C67.6688 30.9685 68.9801 29.4263 69.4919 28.4821H69.5238C70.0676 30.1817 71.3789 30.9685 73.074 30.9685C73.9695 30.9685 74.7052 30.8426 75.3128 30.6538L75.057 27.2547ZM65.5579 27.8212C64.0547 27.8212 63.2871 27.2546 63.2871 26.2475C63.2871 24.8941 64.6624 24.2332 66.9972 24.2332H69.268V25.2089C69.268 26.4363 67.8607 27.8212 65.5579 27.8212ZM95.1372 15.2318C92.5466 15.2318 90.8514 16.5851 90.0518 18.4421C89.3162 16.5222 87.6531 15.2318 85.1264 15.2318C82.9515 15.2318 81.4163 16.2074 80.5208 17.6237L80.3929 15.3891H76.1711V30.8112H80.5528V22.1874C80.5528 20.2675 81.7682 18.9771 83.5272 18.9771C85.1584 18.9771 86.1179 20.1102 86.1179 22.03V30.8112H90.4996V22.1874C90.4996 20.2675 91.715 18.9771 93.4741 18.9771C95.0732 18.9771 96.0647 20.0787 96.0647 22.03V30.8112H100.478V21.0858C100.478 17.6552 98.6234 15.2318 95.1372 15.2318ZM117.744 27.2547C117.392 27.3805 117.232 27.412 116.945 27.412C116.497 27.412 116.209 27.0973 116.209 26.4678V21.495C116.209 17.5923 113.778 15.2318 109.205 15.2318C105.143 15.2318 102.392 17.1516 102.136 20.6452H106.102C106.262 19.3233 107.318 18.505 108.981 18.505C110.964 18.505 111.955 19.5751 111.955 21.1803V21.8727H109.94C105.654 21.8727 101.72 22.9742 101.72 26.7511C101.72 29.3004 103.575 30.9685 107.03 30.9685C110.356 30.9685 111.667 29.4263 112.179 28.4821H112.211C112.755 30.1817 114.066 30.9685 115.761 30.9685C116.657 30.9685 117.392 30.8426 118 30.6538L117.744 27.2547ZM108.245 27.8212C106.742 27.8212 105.974 27.2546 105.974 26.2475C105.974 24.8941 107.35 24.2332 109.684 24.2332H111.955V25.2089C111.955 26.4363 110.548 27.8212 108.245 27.8212Z" fill="#111237"/>
</g>
<defs>
<clipPath id="clip0">
<rect width="118" height="40" fill="white"/>
</clipPath>
</defs>
</svg>
