<svg width="450" height="106" viewBox="0 0 450 106" fill="none" xmlns="http://www.w3.org/2000/svg">
<g clip-path="url(#clip0)">
<path d="M230 105.516C351.503 105.516 450 97.6806 450 88.0156C450 78.3506 351.503 70.5156 230 70.5156C108.497 70.5156 10 78.3506 10 88.0156C10 97.6806 108.497 105.516 230 105.516Z" fill="#FFDDD7"/>
<path d="M284.222 83.5156C280.964 83.5156 277.728 83.6248 275.234 83.8461L201.248 90.411L175.725 88.1463C170.737 87.7037 162.738 87.7037 157.75 88.1463C152.75 88.589 152.75 89.3031 157.75 89.7457L192.26 92.8079C197.248 93.2515 205.247 93.2515 210.235 92.8079L293.259 85.4455C298.247 85.0028 298.247 84.2887 293.259 83.8461C290.759 83.6248 287.479 83.5156 284.222 83.5156Z" fill="#002E8C"/>
</g>
<path d="M46.7466 92.5156H45.3403V81.8516H46.7466V92.5156ZM50.394 84.5908L50.438 85.5869C51.0435 84.8252 51.8345 84.4443 52.811 84.4443C54.4858 84.4443 55.3306 85.3892 55.3452 87.2788V92.5156H53.9902V87.2715C53.9854 86.7002 53.8535 86.2778 53.5947 86.0044C53.3408 85.731 52.9429 85.5942 52.4009 85.5942C51.9614 85.5942 51.5757 85.7114 51.2437 85.9458C50.9116 86.1802 50.6528 86.4878 50.4673 86.8687V92.5156H49.1123V84.5908H50.394ZM60.5674 91.5562C61.0508 91.5562 61.4731 91.4097 61.8345 91.1167C62.1958 90.8237 62.396 90.4575 62.4351 90.0181H63.7168C63.6924 90.4722 63.5361 90.9043 63.248 91.3145C62.96 91.7246 62.5742 92.0518 62.0908 92.2959C61.6123 92.54 61.1045 92.6621 60.5674 92.6621C59.4883 92.6621 58.6289 92.3032 57.9893 91.5854C57.3545 90.8628 57.0371 89.8765 57.0371 88.6265V88.3994C57.0371 87.6279 57.1787 86.9419 57.4619 86.3413C57.7451 85.7407 58.1504 85.2744 58.6777 84.9424C59.21 84.6104 59.8374 84.4443 60.5601 84.4443C61.4487 84.4443 62.186 84.7104 62.772 85.2427C63.3628 85.7749 63.6777 86.4658 63.7168 87.3154H62.4351C62.396 86.8027 62.2007 86.3828 61.8491 86.0557C61.5024 85.7236 61.0728 85.5576 60.5601 85.5576C59.8716 85.5576 59.3369 85.8066 58.9561 86.3047C58.5801 86.7979 58.3921 87.5132 58.3921 88.4507V88.707C58.3921 89.6201 58.5801 90.3232 58.9561 90.8164C59.332 91.3096 59.8691 91.5562 60.5674 91.5562ZM66.7124 92.5156H65.3574V81.2656H66.7124V92.5156ZM73.7803 91.7319C73.2529 92.3521 72.479 92.6621 71.4585 92.6621C70.6138 92.6621 69.9692 92.418 69.5249 91.9297C69.0854 91.4365 68.8633 90.709 68.8584 89.7471V84.5908H70.2134V89.7104C70.2134 90.9116 70.7017 91.5122 71.6782 91.5122C72.7134 91.5122 73.4019 91.1265 73.7437 90.355V84.5908H75.0986V92.5156H73.8096L73.7803 91.7319ZM81.7783 90.4136C81.7783 90.0474 81.6392 89.7642 81.3608 89.564C81.0874 89.3589 80.6064 89.1831 79.918 89.0366C79.2344 88.8901 78.6899 88.7144 78.2847 88.5093C77.8843 88.3042 77.5864 88.0601 77.3911 87.7769C77.2007 87.4937 77.1055 87.1567 77.1055 86.7661C77.1055 86.1167 77.3789 85.5674 77.9258 85.1182C78.4775 84.6689 79.1807 84.4443 80.0352 84.4443C80.9336 84.4443 81.6611 84.6763 82.2178 85.1401C82.7793 85.604 83.0601 86.1973 83.0601 86.9199H81.6978C81.6978 86.5488 81.5391 86.229 81.2217 85.9604C80.9092 85.6919 80.5137 85.5576 80.0352 85.5576C79.542 85.5576 79.1562 85.665 78.8779 85.8799C78.5996 86.0947 78.4604 86.3755 78.4604 86.7222C78.4604 87.0493 78.5898 87.2959 78.8486 87.4619C79.1074 87.6279 79.5737 87.7866 80.2476 87.938C80.9263 88.0894 81.4756 88.27 81.8955 88.48C82.3154 88.6899 82.6255 88.9438 82.8257 89.2417C83.0308 89.5347 83.1333 89.8936 83.1333 90.3184C83.1333 91.0264 82.8501 91.5952 82.2837 92.0249C81.7173 92.4497 80.9824 92.6621 80.0791 92.6621C79.4443 92.6621 78.8828 92.5498 78.3945 92.3252C77.9062 92.1006 77.5229 91.7881 77.2446 91.3877C76.9712 90.9824 76.8345 90.5454 76.8345 90.0767H78.1895C78.2139 90.5308 78.3945 90.8921 78.7314 91.1606C79.0732 91.4243 79.5225 91.5562 80.0791 91.5562C80.5918 91.5562 81.002 91.4536 81.3096 91.2485C81.6221 91.0386 81.7783 90.7603 81.7783 90.4136ZM86.3706 92.5156H85.0156V84.5908H86.3706V92.5156ZM84.9058 82.4888C84.9058 82.269 84.9717 82.0835 85.1035 81.9321C85.2402 81.7808 85.4404 81.7051 85.7041 81.7051C85.9678 81.7051 86.168 81.7808 86.3047 81.9321C86.4414 82.0835 86.5098 82.269 86.5098 82.4888C86.5098 82.7085 86.4414 82.8916 86.3047 83.0381C86.168 83.1846 85.9678 83.2578 85.7041 83.2578C85.4404 83.2578 85.2402 83.1846 85.1035 83.0381C84.9717 82.8916 84.9058 82.7085 84.9058 82.4888ZM91.1606 90.6772L93.1235 84.5908H94.5078L91.666 92.5156H90.6333L87.7622 84.5908H89.1465L91.1606 90.6772ZM98.9976 92.6621C97.9233 92.6621 97.0493 92.3105 96.3755 91.6074C95.7017 90.8994 95.3647 89.9546 95.3647 88.7729V88.5239C95.3647 87.7378 95.5137 87.0371 95.8115 86.4219C96.1143 85.8018 96.5342 85.3184 97.0713 84.9717C97.6133 84.6201 98.1992 84.4443 98.8291 84.4443C99.8594 84.4443 100.66 84.7837 101.231 85.4624C101.803 86.1411 102.088 87.1128 102.088 88.3774V88.9414H96.7197C96.7393 89.7227 96.9663 90.355 97.4009 90.8384C97.8403 91.3169 98.397 91.5562 99.0708 91.5562C99.5493 91.5562 99.9546 91.4585 100.287 91.2632C100.619 91.0679 100.909 90.8091 101.158 90.4868L101.986 91.1313C101.322 92.1519 100.326 92.6621 98.9976 92.6621ZM98.8291 85.5576C98.2822 85.5576 97.8232 85.7578 97.4521 86.1582C97.0811 86.5537 96.8516 87.1104 96.7637 87.8281H100.733V87.7256C100.694 87.0371 100.509 86.5049 100.177 86.1289C99.8447 85.748 99.3955 85.5576 98.8291 85.5576Z" fill="#041011"/>
<g clip-path="url(#clip1)">
<path d="M230 70.5156C351.503 70.5156 450 62.6806 450 53.0156C450 43.3506 351.503 35.5156 230 35.5156C108.497 35.5156 10 43.3506 10 53.0156C10 62.6806 108.497 70.5156 230 70.5156Z" fill="#FFDDD7"/>
<path d="M283.222 48.6406C279.964 48.6406 276.728 48.7498 274.234 48.9711L200.248 55.536L174.725 53.2713C169.737 52.8287 161.738 52.8287 156.75 53.2713C151.75 53.714 151.75 54.4281 156.75 54.8707L191.26 57.9329C196.248 58.3765 204.247 58.3765 209.235 57.9329L292.259 50.5705C297.247 50.1278 297.247 49.4137 292.259 48.9711C289.759 48.7498 286.479 48.6406 283.222 48.6406Z" fill="#002E8C"/>
</g>
<path d="M51.2656 52.5864H46.644V56.3657H52.0127V57.5156H45.2378V46.8516H51.9395V48.0088H46.644V51.4365H51.2656V52.5864ZM54.8252 49.5908L54.8618 50.4697C55.4429 49.7861 56.2266 49.4443 57.2129 49.4443C58.3213 49.4443 59.0757 49.8691 59.4761 50.7188C59.7397 50.3379 60.0815 50.0303 60.5015 49.7959C60.9263 49.5615 61.4268 49.4443 62.0029 49.4443C63.7412 49.4443 64.625 50.3647 64.6543 52.2056V57.5156H63.2993V52.2861C63.2993 51.7197 63.1699 51.2974 62.9111 51.019C62.6523 50.7358 62.2178 50.5942 61.6074 50.5942C61.1045 50.5942 60.687 50.7456 60.355 51.0483C60.0229 51.3462 59.8301 51.749 59.7764 52.2568V57.5156H58.4141V52.3228C58.4141 51.1704 57.8501 50.5942 56.7222 50.5942C55.8335 50.5942 55.2256 50.9727 54.8984 51.7295V57.5156H53.5435V49.5908H54.8252ZM73.3994 53.6411C73.3994 54.8472 73.1235 55.8188 72.5718 56.5562C72.02 57.2935 71.2729 57.6621 70.3306 57.6621C69.3687 57.6621 68.6118 57.3569 68.0601 56.7466V60.5625H66.7051V49.5908H67.9429L68.0088 50.4697C68.5605 49.7861 69.3271 49.4443 70.3086 49.4443C71.2607 49.4443 72.0127 49.8032 72.5645 50.521C73.1211 51.2388 73.3994 52.2373 73.3994 53.5166V53.6411ZM72.0444 53.4873C72.0444 52.5938 71.854 51.8882 71.4731 51.3706C71.0923 50.853 70.5698 50.5942 69.9058 50.5942C69.0854 50.5942 68.4702 50.958 68.0601 51.6855V55.4722C68.4653 56.1948 69.0854 56.5562 69.9204 56.5562C70.5698 56.5562 71.085 56.2998 71.4658 55.7871C71.8516 55.2695 72.0444 54.5029 72.0444 53.4873ZM74.769 53.48C74.769 52.7036 74.9204 52.0054 75.2231 51.3853C75.5308 50.7651 75.9556 50.2866 76.4976 49.9497C77.0444 49.6128 77.667 49.4443 78.3652 49.4443C79.4443 49.4443 80.3159 49.8179 80.98 50.5649C81.6489 51.312 81.9834 52.3057 81.9834 53.5459V53.6411C81.9834 54.4126 81.8345 55.106 81.5366 55.7212C81.2437 56.3315 80.8213 56.8076 80.2695 57.1494C79.7227 57.4912 79.0928 57.6621 78.3799 57.6621C77.3057 57.6621 76.4341 57.2886 75.7651 56.5415C75.1011 55.7944 74.769 54.8057 74.769 53.5752V53.48ZM76.1313 53.6411C76.1313 54.52 76.334 55.2256 76.7393 55.7578C77.1494 56.29 77.6963 56.5562 78.3799 56.5562C79.0684 56.5562 79.6152 56.2876 80.0205 55.7505C80.4258 55.2085 80.6284 54.4517 80.6284 53.48C80.6284 52.6108 80.4209 51.9077 80.0059 51.3706C79.5957 50.8286 79.0488 50.5576 78.3652 50.5576C77.6963 50.5576 77.1567 50.8237 76.7466 51.356C76.3364 51.8882 76.1313 52.6499 76.1313 53.6411ZM90.6992 55.6479L92.2227 49.5908H93.5776L91.2705 57.5156H90.1719L88.2456 51.5098L86.3706 57.5156H85.272L82.9722 49.5908H84.3198L85.8799 55.5234L87.7256 49.5908H88.8169L90.6992 55.6479ZM98.2505 57.6621C97.1763 57.6621 96.3022 57.3105 95.6284 56.6074C94.9546 55.8994 94.6177 54.9546 94.6177 53.7729V53.5239C94.6177 52.7378 94.7666 52.0371 95.0645 51.4219C95.3672 50.8018 95.7871 50.3184 96.3242 49.9717C96.8662 49.6201 97.4521 49.4443 98.082 49.4443C99.1123 49.4443 99.9131 49.7837 100.484 50.4624C101.056 51.1411 101.341 52.1128 101.341 53.3774V53.9414H95.9727C95.9922 54.7227 96.2192 55.355 96.6538 55.8384C97.0933 56.3169 97.6499 56.5562 98.3237 56.5562C98.8022 56.5562 99.2075 56.4585 99.5396 56.2632C99.8716 56.0679 100.162 55.8091 100.411 55.4868L101.239 56.1313C100.575 57.1519 99.5786 57.6621 98.2505 57.6621ZM98.082 50.5576C97.5352 50.5576 97.0762 50.7578 96.7051 51.1582C96.334 51.5537 96.1045 52.1104 96.0166 52.8281H99.9863V52.7256C99.9473 52.0371 99.7617 51.5049 99.4297 51.1289C99.0977 50.748 98.6484 50.5576 98.082 50.5576ZM106.747 50.8066C106.542 50.7725 106.319 50.7554 106.08 50.7554C105.191 50.7554 104.588 51.1338 104.271 51.8906V57.5156H102.916V49.5908H104.234L104.256 50.5063C104.701 49.7983 105.331 49.4443 106.146 49.4443C106.41 49.4443 106.61 49.4785 106.747 49.5469V50.8066ZM109.471 57.5156H108.116V49.5908H109.471V57.5156ZM108.006 47.4888C108.006 47.269 108.072 47.0835 108.204 46.9321C108.341 46.7808 108.541 46.7051 108.805 46.7051C109.068 46.7051 109.269 46.7808 109.405 46.9321C109.542 47.0835 109.61 47.269 109.61 47.4888C109.61 47.7085 109.542 47.8916 109.405 48.0381C109.269 48.1846 109.068 48.2578 108.805 48.2578C108.541 48.2578 108.341 48.1846 108.204 48.0381C108.072 47.8916 108.006 47.7085 108.006 47.4888ZM112.928 49.5908L112.972 50.5869C113.578 49.8252 114.369 49.4443 115.345 49.4443C117.02 49.4443 117.865 50.3892 117.879 52.2788V57.5156H116.524V52.2715C116.52 51.7002 116.388 51.2778 116.129 51.0044C115.875 50.731 115.477 50.5942 114.935 50.5942C114.496 50.5942 114.11 50.7114 113.778 50.9458C113.446 51.1802 113.187 51.4878 113.001 51.8687V57.5156H111.646V49.5908H112.928ZM119.601 53.4873C119.601 52.252 119.886 51.2705 120.458 50.543C121.029 49.8105 121.786 49.4443 122.728 49.4443C123.695 49.4443 124.449 49.7861 124.991 50.4697L125.057 49.5908H126.295V57.3252C126.295 58.3506 125.99 59.1587 125.379 59.7495C124.774 60.3403 123.958 60.6357 122.933 60.6357C122.362 60.6357 121.803 60.5137 121.256 60.2695C120.709 60.0254 120.292 59.6909 120.003 59.2661L120.707 58.4531C121.288 59.1709 121.998 59.5298 122.838 59.5298C123.497 59.5298 124.01 59.3442 124.376 58.9731C124.747 58.6021 124.933 58.0796 124.933 57.4058V56.7246C124.391 57.3496 123.651 57.6621 122.713 57.6621C121.786 57.6621 121.034 57.2886 120.458 56.5415C119.886 55.7944 119.601 54.7764 119.601 53.4873ZM120.963 53.6411C120.963 54.5347 121.146 55.2378 121.512 55.7505C121.878 56.2583 122.391 56.5122 123.05 56.5122C123.905 56.5122 124.532 56.124 124.933 55.3477V51.7295C124.518 50.9727 123.895 50.5942 123.065 50.5942C122.406 50.5942 121.891 50.8506 121.52 51.3633C121.148 51.876 120.963 52.6353 120.963 53.6411Z" fill="#041011"/>
<g clip-path="url(#clip2)">
<path d="M230 35.5156C351.503 35.5156 450 27.6806 450 18.0156C450 8.35064 351.503 0.515625 230 0.515625C108.497 0.515625 10 8.35064 10 18.0156C10 27.6806 108.497 35.5156 230 35.5156Z" fill="#FFDDD7"/>
<path d="M283.222 13.6406C279.964 13.6406 276.728 13.7498 274.234 13.9711L200.248 20.536L174.725 18.2713C169.737 17.8287 161.738 17.8287 156.75 18.2713C151.75 18.714 151.75 19.4281 156.75 19.8707L191.26 22.9329C196.248 23.3765 204.247 23.3765 209.235 22.9329L292.259 15.5705C297.247 15.1278 297.247 14.4137 292.259 13.9711C289.759 13.7498 286.479 13.6406 283.222 13.6406Z" fill="#002E8C"/>
</g>
<path d="M48.9834 21.5156H47.7119V13.0869L45.1621 14.0234V12.875L48.7852 11.5146H48.9834V21.5156ZM52.7773 20.8525C52.7773 20.6338 52.8411 20.4515 52.9688 20.3057C53.1009 20.1598 53.2969 20.0869 53.5566 20.0869C53.8164 20.0869 54.0124 20.1598 54.1445 20.3057C54.2812 20.4515 54.3496 20.6338 54.3496 20.8525C54.3496 21.0622 54.2812 21.2376 54.1445 21.3789C54.0124 21.5202 53.8164 21.5908 53.5566 21.5908C53.2969 21.5908 53.1009 21.5202 52.9688 21.3789C52.8411 21.2376 52.7773 21.0622 52.7773 20.8525ZM52.7842 14.8164C52.7842 14.5977 52.848 14.4154 52.9756 14.2695C53.1077 14.1237 53.3037 14.0508 53.5635 14.0508C53.8232 14.0508 54.0192 14.1237 54.1514 14.2695C54.2881 14.4154 54.3564 14.5977 54.3564 14.8164C54.3564 15.026 54.2881 15.2015 54.1514 15.3428C54.0192 15.484 53.8232 15.5547 53.5635 15.5547C53.3037 15.5547 53.1077 15.484 52.9756 15.3428C52.848 15.2015 52.7842 15.026 52.7842 14.8164ZM60.2354 21.5156H58.9639V13.0869L56.4141 14.0234V12.875L60.0371 11.5146H60.2354V21.5156ZM70.5098 20.6201C70.9609 20.6201 71.3551 20.4834 71.6924 20.21C72.0296 19.9365 72.2165 19.5947 72.2529 19.1846H73.4492C73.4264 19.6084 73.2806 20.0117 73.0117 20.3945C72.7428 20.7773 72.3828 21.0827 71.9316 21.3105C71.485 21.5384 71.0111 21.6523 70.5098 21.6523C69.5026 21.6523 68.7005 21.3174 68.1035 20.6475C67.5111 19.973 67.2148 19.0524 67.2148 17.8857V17.6738C67.2148 16.9538 67.347 16.3135 67.6113 15.7529C67.8757 15.1924 68.2539 14.7572 68.7461 14.4473C69.2428 14.1374 69.8285 13.9824 70.5029 13.9824C71.3324 13.9824 72.0205 14.2308 72.5674 14.7275C73.1188 15.2243 73.4128 15.8691 73.4492 16.6621H72.2529C72.2165 16.1836 72.0342 15.7917 71.7061 15.4863C71.3825 15.1764 70.9814 15.0215 70.5029 15.0215C69.8604 15.0215 69.3613 15.2539 69.0059 15.7188C68.6549 16.179 68.4795 16.8467 68.4795 17.7217V17.9609C68.4795 18.8132 68.6549 19.4694 69.0059 19.9297C69.3568 20.39 69.8581 20.6201 70.5098 20.6201ZM74.5361 17.749C74.5361 17.0244 74.6774 16.3727 74.96 15.7939C75.2471 15.2152 75.6436 14.7686 76.1494 14.4541C76.6598 14.1396 77.2409 13.9824 77.8926 13.9824C78.8997 13.9824 79.7132 14.3311 80.333 15.0283C80.9574 15.7256 81.2695 16.653 81.2695 17.8105V17.8994C81.2695 18.6195 81.1305 19.2666 80.8525 19.8408C80.5791 20.4105 80.1849 20.8548 79.6699 21.1738C79.1595 21.4928 78.5716 21.6523 77.9062 21.6523C76.9036 21.6523 76.0902 21.3037 75.4658 20.6064C74.846 19.9092 74.5361 18.9863 74.5361 17.8379V17.749ZM75.8076 17.8994C75.8076 18.7197 75.9967 19.3783 76.375 19.875C76.7578 20.3717 77.2682 20.6201 77.9062 20.6201C78.5488 20.6201 79.0592 20.3695 79.4375 19.8682C79.8158 19.3623 80.0049 18.6559 80.0049 17.749C80.0049 16.9378 79.8112 16.2816 79.4238 15.7803C79.041 15.2744 78.5306 15.0215 77.8926 15.0215C77.2682 15.0215 76.7646 15.2699 76.3818 15.7666C75.999 16.2633 75.8076 16.9743 75.8076 17.8994ZM87.4219 21.5156C87.349 21.3698 87.2897 21.11 87.2441 20.7363C86.6562 21.347 85.9544 21.6523 85.1387 21.6523C84.4095 21.6523 83.8102 21.4473 83.3408 21.0371C82.876 20.6224 82.6436 20.0983 82.6436 19.4648C82.6436 18.6947 82.9352 18.0977 83.5186 17.6738C84.1064 17.2454 84.9313 17.0312 85.9932 17.0312H87.2236V16.4502C87.2236 16.0081 87.0915 15.6572 86.8271 15.3975C86.5628 15.1331 86.1732 15.001 85.6582 15.001C85.207 15.001 84.8288 15.1149 84.5234 15.3428C84.2181 15.5706 84.0654 15.8464 84.0654 16.1699H82.7939C82.7939 15.8008 82.9238 15.4453 83.1836 15.1035C83.4479 14.7572 83.8034 14.4837 84.25 14.2832C84.7012 14.0827 85.1956 13.9824 85.7334 13.9824C86.5856 13.9824 87.2533 14.1966 87.7363 14.625C88.2194 15.0488 88.4701 15.6344 88.4883 16.3818V19.7861C88.4883 20.4652 88.5749 21.0052 88.748 21.4062V21.5156H87.4219ZM85.3232 20.5518C85.7197 20.5518 86.0957 20.4492 86.4512 20.2441C86.8066 20.0391 87.0641 19.7725 87.2236 19.4443V17.9268H86.2324C84.6829 17.9268 83.9082 18.3802 83.9082 19.2871C83.9082 19.6836 84.0404 19.9935 84.3047 20.2168C84.569 20.4401 84.9085 20.5518 85.3232 20.5518ZM93.4375 20.6201C93.8887 20.6201 94.2829 20.4834 94.6201 20.21C94.9574 19.9365 95.1442 19.5947 95.1807 19.1846H96.377C96.3542 19.6084 96.2083 20.0117 95.9395 20.3945C95.6706 20.7773 95.3105 21.0827 94.8594 21.3105C94.4128 21.5384 93.9388 21.6523 93.4375 21.6523C92.4303 21.6523 91.6283 21.3174 91.0312 20.6475C90.4388 19.973 90.1426 19.0524 90.1426 17.8857V17.6738C90.1426 16.9538 90.2747 16.3135 90.5391 15.7529C90.8034 15.1924 91.1816 14.7572 91.6738 14.4473C92.1706 14.1374 92.7562 13.9824 93.4307 13.9824C94.2601 13.9824 94.9482 14.2308 95.4951 14.7275C96.0465 15.2243 96.3405 15.8691 96.377 16.6621H95.1807C95.1442 16.1836 94.9619 15.7917 94.6338 15.4863C94.3102 15.1764 93.9092 15.0215 93.4307 15.0215C92.7881 15.0215 92.2891 15.2539 91.9336 15.7188C91.5827 16.179 91.4072 16.8467 91.4072 17.7217V17.9609C91.4072 18.8132 91.5827 19.4694 91.9336 19.9297C92.2845 20.39 92.7858 20.6201 93.4375 20.6201ZM99.0635 15.0146C99.624 14.3265 100.353 13.9824 101.251 13.9824C102.814 13.9824 103.603 14.8643 103.616 16.6279V21.5156H102.352V16.6211C102.347 16.0879 102.224 15.6937 101.982 15.4385C101.745 15.1833 101.374 15.0557 100.868 15.0557C100.458 15.0557 100.098 15.165 99.7881 15.3838C99.4782 15.6025 99.2367 15.8896 99.0635 16.2451V21.5156H97.7988V11.0156H99.0635V15.0146ZM106.884 21.5156H105.619V14.1191H106.884V21.5156ZM105.517 12.1572C105.517 11.9521 105.578 11.779 105.701 11.6377C105.829 11.4964 106.016 11.4258 106.262 11.4258C106.508 11.4258 106.695 11.4964 106.822 11.6377C106.95 11.779 107.014 11.9521 107.014 12.1572C107.014 12.3623 106.95 12.5332 106.822 12.6699C106.695 12.8066 106.508 12.875 106.262 12.875C106.016 12.875 105.829 12.8066 105.701 12.6699C105.578 12.5332 105.517 12.3623 105.517 12.1572ZM110.11 14.1191L110.151 15.0488C110.716 14.3379 111.455 13.9824 112.366 13.9824C113.929 13.9824 114.718 14.8643 114.731 16.6279V21.5156H113.467V16.6211C113.462 16.0879 113.339 15.6937 113.098 15.4385C112.861 15.1833 112.489 15.0557 111.983 15.0557C111.573 15.0557 111.213 15.165 110.903 15.3838C110.593 15.6025 110.352 15.8896 110.179 16.2451V21.5156H108.914V14.1191H110.11ZM116.338 17.7559C116.338 16.6029 116.604 15.6868 117.138 15.0078C117.671 14.3242 118.377 13.9824 119.257 13.9824C120.159 13.9824 120.863 14.3014 121.369 14.9395L121.431 14.1191H122.586V21.3379C122.586 22.2949 122.301 23.0492 121.731 23.6006C121.166 24.152 120.405 24.4277 119.448 24.4277C118.915 24.4277 118.393 24.3138 117.883 24.0859C117.372 23.8581 116.983 23.5459 116.714 23.1494L117.37 22.3906C117.912 23.0605 118.576 23.3955 119.359 23.3955C119.975 23.3955 120.453 23.2223 120.795 22.876C121.141 22.5296 121.314 22.042 121.314 21.4131V20.7773C120.809 21.3607 120.118 21.6523 119.243 21.6523C118.377 21.6523 117.675 21.3037 117.138 20.6064C116.604 19.9092 116.338 18.959 116.338 17.7559ZM117.609 17.8994C117.609 18.7334 117.78 19.3896 118.122 19.8682C118.464 20.3421 118.942 20.5791 119.558 20.5791C120.355 20.5791 120.941 20.2168 121.314 19.4922V16.1152C120.927 15.4089 120.346 15.0557 119.571 15.0557C118.956 15.0557 118.475 15.2949 118.129 15.7734C117.783 16.252 117.609 16.9606 117.609 17.8994Z" fill="#041011"/>
<defs>
<clipPath id="clip0">
<rect width="440" height="35" fill="white" transform="translate(10 70.5156)"/>
</clipPath>
<clipPath id="clip1">
<rect width="440" height="35" fill="white" transform="translate(10 35.5156)"/>
</clipPath>
<clipPath id="clip2">
<rect width="440" height="35" fill="white" transform="translate(10 0.515625)"/>
</clipPath>
</defs>
</svg>
