<svg width="87" height="98" viewBox="0 0 87 98" fill="none" xmlns="http://www.w3.org/2000/svg">
<path d="M50.843 52.2949C60.7071 54.4814 64.4885 57.7126 62.1873 61.9885C59.9255 66.1911 57.392 62.5691 59.4105 60.2622C61.4291 57.9552 65.9913 59.5032 70.4665 65.1688C75.2683 71.2478 79.6914 73.6773 83.7357 72.4572" stroke="#FFC8C8" stroke-width="3" stroke-linecap="round"/>
<path d="M41.4534 39.7971L52.4876 33.7638C53.1773 33.3867 52.8921 32.3541 52.1242 32.3283L5.22022 26.924C4.56731 26.8353 4.13521 27.6659 4.57208 28.1698L27.0279 60.0159C27.4004 60.4065 28.1682 60.4323 28.3199 59.9037L36.9069 45.8487L45.009 50.0355C45.6757 50.4138 46.4665 49.6843 46.0802 49.0041L41.4534 39.7971ZM40.2211 38.6882L12.2921 29.2971L39.283 31.4732L49.5311 33.5976L45.2915 36.7734L40.2211 38.6882ZM7.72649 30.0107C11.0659 31.6071 14.6363 33.4347 18.4377 35.4935C22.2392 37.5523 27.9511 40.7519 35.5734 45.0922L32.123 51.9214L27.584 58.0776L17.7992 45.5168L7.72649 30.0107ZM36.7185 44.9183L6.7574 28.122L29.3224 36.1355L39.8166 40.0978L42.2936 43.4362L43.5925 47.5416L36.7185 44.9183Z" fill="#FFC8C8" stroke="#FFC8C8"/>
</svg>
