<svg width="87" height="98" viewBox="0 0 87 98" fill="none" xmlns="http://www.w3.org/2000/svg">
<path d="M36.1482 52.2766C26.2765 54.4842 22.4986 57.7191 24.8144 61.9812C27.0905 66.1703 29.6178 62.5486 27.5903 60.251C25.5629 57.9535 20.9986 59.5103 16.5324 65.1768C11.7403 71.2569 7.3177 73.6932 3.26461 72.4857" stroke="#FFC8C8" stroke-width="3" stroke-linecap="round"/>
<path d="M45.5499 39.8223L34.4945 33.8099C33.8036 33.4341 34.0866 32.4003 34.8549 32.3727L81.7779 26.8606C82.431 26.7704 82.8653 27.6004 82.4293 28.1057L60.0313 60.0213C59.6594 60.413 58.8911 60.4406 58.7382 59.912L50.1133 45.8675L42.0153 50.0749C41.349 50.4549 40.5561 49.7267 40.9411 49.0453L45.5499 39.8223ZM46.7805 38.7099L74.7067 29.2508L47.7027 31.4884L37.4526 33.637L41.7024 36.8053L46.7805 38.7099ZM79.277 29.9547C75.939 31.5595 72.3704 33.3962 68.5711 35.4648C64.7719 37.5333 59.0635 40.7475 51.4459 45.1075L54.9143 51.9332L59.4704 58.0831L69.233 45.4928L79.277 29.9547ZM50.2997 44.9361L80.2424 28.0627L57.6807 36.1314L47.1885 40.1196L44.7175 43.4655L43.4271 47.5763L50.2997 44.9361Z" fill="#FFC8C8" stroke="#FFC8C8"/>
</svg>
