<svg width="174" height="105" viewBox="0 0 174 105" fill="none" xmlns="http://www.w3.org/2000/svg">
<path d="M166.193 30.882C110.986 29.3661 74.9452 32.1272 58.0689 39.1654C32.7544 49.7226 47.3552 69.0681 53.7201 73.1218C60.0851 77.1755 69.5749 65.7344 60.8637 63.2769C52.1525 60.8194 39.3592 70.8828 32.5382 78.2802C27.991 83.2118 23.0271 90.2345 17.6465 99.3484" stroke="#002E8C" stroke-width="3" stroke-linecap="square"/>
<path fill-rule="evenodd" clip-rule="evenodd" d="M14.4151 101.839C14.6256 102.492 15.5854 102.781 16.5591 102.485L32.4253 97.6627C33.3989 97.366 34.0176 96.5975 33.8071 95.9445C33.5962 95.2904 32.6364 95.0015 31.6627 95.297L17.5595 99.5842L14.5091 90.1237C14.2986 89.4708 13.3384 89.1807 12.3651 89.4773C11.3912 89.7728 10.7728 90.5426 10.9833 91.1955L14.4151 101.839Z" fill="#002E8C"/>
</svg>
