<svg width="526" height="493" viewBox="0 0 526 493" fill="none" xmlns="http://www.w3.org/2000/svg">
<path fill-rule="evenodd" clip-rule="evenodd" d="M523.23 487.544C505.004 481.996 491.735 479.005 483.422 478.571C470.954 477.921 392.485 487.544 377.145 487.544C361.806 487.544 272.993 492.585 257.201 492.585C241.409 492.585 167.923 484.312 152.493 484.312C142.206 484.312 91.7094 487.069 1.00309 492.585C7.76401 422.23 11.1445 381.972 11.1445 371.81C11.1445 356.567 1.4953 304.579 1.00309 281.655C0.510878 258.732 8.57743 153.188 8.57743 130.738C8.57743 115.772 6.96192 74.5626 3.73085 7.10967C83.0801 15.0686 129.041 19.048 141.613 19.048C160.471 19.048 219.765 4.34644 234.584 3.68849C249.402 3.03054 396.286 7.10967 415.369 7.10967C428.09 7.10967 464.959 4.94059 525.975 0.602432C522.403 66.3625 520.617 107.174 520.617 123.035C520.617 146.828 526.195 248.412 525.975 268.695C525.756 288.979 517.924 354.538 517.924 371.81C517.924 383.324 519.693 421.903 523.23 487.544Z" fill="white"/>
</svg>
