<svg width="524" height="330" viewBox="0 0 524 330" fill="none" xmlns="http://www.w3.org/2000/svg">
<path fill-rule="evenodd" clip-rule="evenodd" d="M3.09602 3.97013C21.2745 7.68027 34.5092 9.68033 42.8 9.97031C55.2363 10.4053 133.5 3.97013 148.799 3.97013C164.099 3.97013 252.68 0.599609 268.431 0.599609C284.182 0.599609 357.476 6.13175 372.866 6.13175C383.126 6.13175 433.49 4.2877 523.96 0.599609C517.216 47.6457 513.845 74.5664 513.845 81.3617C513.845 91.5546 523.469 126.319 523.96 141.648C524.451 156.977 516.405 227.554 516.405 242.566C516.405 252.574 518.016 280.131 521.239 325.236C442.097 319.914 396.256 317.253 383.717 317.253C364.908 317.253 305.769 327.084 290.989 327.524C276.209 327.964 129.709 325.236 110.676 325.236C97.9878 325.236 61.2152 326.687 0.358352 329.588C3.92092 285.614 5.70225 258.324 5.70225 247.717C5.70225 231.807 0.139339 163.878 0.358352 150.314C0.577365 136.751 8.38837 92.9115 8.38837 81.3617C8.38837 73.6619 6.62426 47.8647 3.09602 3.97013Z" fill="white"/>
</svg>
