<svg width="524" height="300" viewBox="0 0 524 300" fill="none" xmlns="http://www.w3.org/2000/svg">
<path fill-rule="evenodd" clip-rule="evenodd" d="M3.09598 296.525C21.2745 293.153 34.5091 291.335 42.8 291.072C55.2363 290.677 133.5 296.525 148.799 296.525C164.099 296.525 252.68 299.588 268.431 299.588C284.182 299.588 357.476 294.56 372.866 294.56C383.126 294.56 433.49 296.236 523.96 299.588C517.216 256.832 513.845 232.366 513.845 226.19C513.845 216.927 523.469 185.333 523.96 171.401C524.451 157.47 516.405 93.3285 516.405 79.6855C516.405 70.5903 518.016 45.5462 521.239 4.5535C442.097 9.39032 396.256 11.8087 383.717 11.8087C364.908 11.8087 305.769 2.87424 290.989 2.47437C276.209 2.07452 129.709 4.5535 110.676 4.5535C97.9878 4.5535 61.2152 3.23529 0.358352 0.598907C3.92092 40.5629 5.7022 65.3647 5.7022 75.0043C5.7022 89.4638 0.139339 151.198 0.358352 163.525C0.577365 175.852 8.38833 215.694 8.38833 226.19C8.38833 233.188 6.62422 256.633 3.09598 296.525Z" fill="white"/>
</svg>
