<svg width="156" height="32" viewBox="0 0 156 32" fill="none" xmlns="http://www.w3.org/2000/svg">
<g clip-path="url(#clip0)">
<path d="M135.44 28.0618C135.743 27.7134 136.023 27.3473 136.32 26.9943C137.631 25.4316 139.133 24.0719 140.746 22.8871C140.879 22.8967 140.966 22.8793 141.021 22.9108C141.958 23.4475 142.888 23.9962 143.827 24.5295C144.342 24.8218 144.873 25.0918 145.395 25.3725C146.349 25.8861 147.328 26.3719 148.124 27.0939C148.716 27.6303 149.564 27.6161 150.249 27.9435C150.303 27.969 150.394 27.9356 150.467 27.9215C150.785 27.8598 151.01 27.5445 150.927 27.2656C150.898 27.1669 150.837 27.0802 150.8 26.9839C150.02 24.9735 149.307 22.9381 148.834 20.8061C148.727 20.3263 148.621 19.847 148.489 19.3763C148.293 18.677 148.336 18.4965 148.984 17.957C150.085 17.0417 151.171 16.1149 152.044 14.9735C152.391 14.5195 152.788 14.0946 153.186 13.6778C153.423 13.4305 153.701 13.2173 153.972 13.003C154.181 12.8378 154.407 12.6944 154.663 12.5166C154.652 12.3408 154.662 12.2646 154.64 12.2024C154.347 11.3677 154.046 11.1939 153.115 11.3047C152.854 11.3353 152.595 11.3474 152.337 11.3782C150.524 11.5952 148.712 11.6287 146.899 12.0191C146.022 12.2083 145.813 12.039 145.563 11.2391C145.128 9.84474 144.674 8.4566 144.228 7.06642C144.195 6.96657 144.166 6.86552 144.127 6.76943C143.553 5.35534 142.983 3.93935 142.395 2.53227C142.291 2.28353 142.151 2.02255 141.947 1.86003C141.459 1.47406 140.85 1.57818 140.273 1.83535C139.819 2.03863 139.953 2.45344 139.915 2.80509C139.86 3.30951 139.757 3.81359 139.696 4.31741C139.635 4.81843 139.683 5.33473 139.533 5.81651C139.364 6.3652 139.334 6.88952 139.32 7.42932C139.311 7.7885 139.327 8.16521 139.213 8.50921C139.01 9.1223 138.977 9.72787 138.929 10.3392C138.915 10.5196 138.899 10.7019 138.861 10.8809C138.752 11.4008 138.409 11.7389 137.909 11.9311C137.732 11.9992 137.545 12.0456 137.36 12.074C135.476 12.3648 133.591 12.6942 131.703 12.7694C130.892 12.8022 130.082 12.8014 129.27 12.8279C128.865 12.8418 128.627 13.0222 128.49 13.3807C128.386 13.6555 128.459 13.8352 128.845 14.0375C129.276 14.2648 129.739 14.4392 130.174 14.6617C131.077 15.125 131.979 15.5923 132.864 16.0822C133.813 16.6072 134.703 17.2094 135.496 17.9355C135.737 18.1569 135.904 18.3974 135.831 18.7644C135.609 19.8817 135.44 21.005 135.153 22.1125C134.905 23.0718 134.529 24.0131 134.198 24.9593C133.917 25.7642 133.672 26.5782 133.278 27.3559C133.047 27.8134 133.191 28.2017 133.612 28.4332C134.15 28.7302 135.004 28.563 135.44 28.0618Z" fill="#F5A9AB"/>
</g>
<g clip-path="url(#clip1)">
<path d="M98.3411 19.1755C98.796 19.0955 99.244 18.9873 99.6966 18.8995C101.699 18.5103 103.723 18.3992 105.721 18.493C105.818 18.5841 105.897 18.6258 105.92 18.6846C106.31 19.6914 106.688 20.7031 107.082 21.7087C107.299 22.2601 107.541 22.8037 107.771 23.3507C108.189 24.3502 108.643 25.3436 108.808 26.4059C108.93 27.1949 109.598 27.7175 109.924 28.4033C109.95 28.4571 110.042 28.4882 110.108 28.5232C110.393 28.6753 110.767 28.5721 110.878 28.3033C110.918 28.2083 110.925 28.1023 110.956 28.004C111.616 25.9511 112.342 23.9204 113.316 21.9658C113.536 21.526 113.755 21.0868 113.948 20.6376C114.236 19.9707 114.383 19.8574 115.226 19.8463C116.658 19.828 118.085 19.7908 119.482 19.4531C120.037 19.3188 120.613 19.2382 121.185 19.1649C121.525 19.1222 121.874 19.1311 122.22 19.135C122.486 19.1383 122.753 19.1694 123.063 19.1922C123.165 19.0483 123.221 18.9956 123.243 18.9334C123.541 18.1005 123.416 17.7762 122.623 17.2759C122.401 17.1359 122.192 16.9821 121.972 16.8433C120.427 15.8715 118.997 14.7571 117.343 13.9197C116.542 13.5143 116.486 13.2517 116.795 12.4726C117.334 11.115 117.855 9.75061 118.384 8.3896C118.421 8.29132 118.462 8.1947 118.492 8.0953C118.936 6.6349 119.384 5.17616 119.813 3.71242C119.888 3.45366 119.944 3.16269 119.887 2.90781C119.751 2.30088 119.213 1.99881 118.602 1.83555C118.121 1.70728 117.964 2.11431 117.714 2.36363C117.354 2.72124 116.956 3.04774 116.591 3.40091C116.229 3.75185 115.941 4.18331 115.522 4.46373C115.045 4.78357 114.692 5.17227 114.341 5.58319C114.108 5.85639 113.883 6.15902 113.579 6.35503C113.035 6.70375 112.628 7.15353 112.206 7.59832C112.081 7.72937 111.954 7.86097 111.812 7.97647C111.4 8.31186 110.921 8.35851 110.412 8.19359C110.231 8.13528 110.056 8.0531 109.895 7.95926C108.247 6.99916 106.575 6.06906 105.061 4.93961C104.41 4.45428 103.781 3.94398 103.133 3.45366C102.809 3.20933 102.511 3.19989 102.179 3.39258C101.925 3.54028 101.869 3.7263 102.042 4.12611C102.234 4.57423 102.484 5.00124 102.682 5.44769C103.092 6.37613 103.499 7.3068 103.878 8.24467C104.285 9.24974 104.598 10.2776 104.757 11.341C104.806 11.6652 104.784 11.9568 104.496 12.1961C103.62 12.9246 102.782 13.6915 101.862 14.3717C101.066 14.9609 100.181 15.4556 99.3282 15.9826C98.6033 16.4313 97.9009 16.9099 97.1054 17.2664C96.6375 17.4763 96.5053 17.8689 96.6867 18.3137C96.9183 18.8834 97.6873 19.291 98.3411 19.1755Z" fill="#F5A9AB"/>
</g>
<g clip-path="url(#clip2)">
<path d="M71.4399 28.0618C71.743 27.7134 72.0231 27.3473 72.3196 26.9943C73.6309 25.4316 75.1335 24.0719 76.7457 22.8871C76.8786 22.8967 76.9662 22.8793 77.0208 22.9108C77.9578 23.4475 78.8879 23.9962 79.8272 24.5295C80.3424 24.8218 80.8729 25.0918 81.3954 25.3725C82.3494 25.8861 83.328 26.3719 84.1243 27.0939C84.7158 27.6303 85.5636 27.6161 86.249 27.9435C86.3031 27.969 86.3938 27.9356 86.4668 27.9215C86.7847 27.8598 87.01 27.5445 86.9273 27.2656C86.8983 27.1669 86.8369 27.0802 86.7996 26.9839C86.0201 24.9735 85.3069 22.9381 84.8338 20.8061C84.7274 20.3263 84.6214 19.847 84.4889 19.3763C84.2927 18.677 84.3356 18.4965 84.9842 17.957C86.0854 17.0417 87.1708 16.1149 88.0438 14.9735C88.3909 14.5195 88.7877 14.0946 89.1859 13.6778C89.4234 13.4305 89.7008 13.2173 89.9715 13.003C90.1809 12.8378 90.4073 12.6944 90.6631 12.5166C90.6517 12.3408 90.6619 12.2646 90.6399 12.2024C90.3472 11.3677 90.0465 11.1939 89.1146 11.3047C88.8544 11.3353 88.5952 11.3474 88.3366 11.3782C86.5245 11.5952 84.7121 11.6287 82.8994 12.0191C82.0216 12.2083 81.8133 12.039 81.5632 11.2391C81.1277 9.84474 80.674 8.4566 80.2281 7.06642C80.1952 6.96657 80.1665 6.86552 80.1272 6.76943C79.5528 5.35534 78.9835 3.93935 78.3952 2.53227C78.2912 2.28353 78.1511 2.02255 77.9468 1.86003C77.459 1.47406 76.8504 1.57818 76.2734 1.83535C75.8186 2.03863 75.9531 2.45344 75.915 2.80509C75.8603 3.30951 75.7567 3.81359 75.6957 4.31741C75.6346 4.81843 75.6827 5.33473 75.5333 5.81651C75.364 6.3652 75.3341 6.88952 75.3205 7.42932C75.3111 7.7885 75.3267 8.16521 75.2134 8.50921C75.0104 9.1223 74.9773 9.72787 74.9292 10.3392C74.9146 10.5196 74.8987 10.7019 74.8611 10.8809C74.7521 11.4008 74.4086 11.7389 73.9092 11.9311C73.7324 11.9992 73.5446 12.0456 73.3604 12.074C71.4757 12.3648 69.591 12.6942 67.7034 12.7694C66.8916 12.8022 66.0818 12.8014 65.27 12.8279C64.8646 12.8418 64.6268 13.0222 64.4903 13.3807C64.3856 13.6555 64.4592 13.8352 64.8448 14.0375C65.2761 14.2648 65.7393 14.4392 66.174 14.6617C67.0771 15.125 67.9789 15.5923 68.8642 16.0822C69.8129 16.6072 70.7026 17.2094 71.4956 17.9355C71.7375 18.1569 71.9038 18.3974 71.8309 18.7644C71.6088 19.8817 71.4401 21.005 71.1533 22.1125C70.9049 23.0718 70.5286 24.0131 70.1976 24.9593C69.9166 25.7642 69.672 26.5782 69.2781 27.3559C69.0466 27.8134 69.1909 28.2017 69.6118 28.4332C70.1503 28.7302 71.0045 28.563 71.4399 28.0618Z" fill="#F5A9AB"/>
</g>
<g clip-path="url(#clip3)">
<path d="M34.3411 19.1755C34.796 19.0955 35.244 18.9873 35.6966 18.8995C37.6991 18.5103 39.7225 18.3992 41.7211 18.493C41.8183 18.5841 41.8974 18.6258 41.92 18.6846C42.3104 19.6914 42.6879 20.7031 43.0823 21.7087C43.2987 22.2601 43.5411 22.8037 43.7705 23.3507C44.1886 24.3502 44.6435 25.3436 44.8079 26.4059C44.93 27.1949 45.5978 27.7175 45.9244 28.4033C45.9504 28.4571 46.042 28.4882 46.1075 28.5232C46.3934 28.6753 46.7669 28.5721 46.8782 28.3033C46.9178 28.2083 46.9246 28.1023 46.9562 28.004C47.6156 25.9511 48.3422 23.9204 49.3164 21.9658C49.5356 21.526 49.7548 21.0868 49.9481 20.6376C50.2357 19.9707 50.3826 19.8574 51.2262 19.8463C52.658 19.828 54.0848 19.7908 55.4815 19.4531C56.037 19.3188 56.6127 19.2382 57.1846 19.1649C57.5247 19.1222 57.8745 19.1311 58.2197 19.135C58.4864 19.1383 58.7526 19.1694 59.0633 19.1922C59.165 19.0483 59.221 18.9956 59.243 18.9334C59.5408 18.1005 59.4165 17.7762 58.6226 17.2759C58.4011 17.1359 58.192 16.9821 57.9717 16.8433C56.4269 15.8715 54.9973 14.7571 53.3429 13.9197C52.5416 13.5143 52.4863 13.2517 52.7953 12.4726C53.3344 11.115 53.8553 9.75061 54.3837 8.3896C54.421 8.29132 54.4622 8.1947 54.4922 8.0953C54.9357 6.6349 55.3844 5.17616 55.8127 3.71242C55.8884 3.45366 55.9437 3.16269 55.8872 2.90781C55.7511 2.30088 55.2126 1.99881 54.6023 1.83555C54.1209 1.70728 53.9644 2.11431 53.7135 2.36363C53.3536 2.72124 52.9558 3.04774 52.5914 3.40091C52.2286 3.75185 51.941 4.18331 51.5217 4.46373C51.0448 4.78357 50.6917 5.17227 50.3414 5.58319C50.108 5.85639 49.8831 6.15902 49.5786 6.35503C49.035 6.70375 48.6282 7.15353 48.2061 7.59832C48.0812 7.72937 47.9541 7.86097 47.8122 7.97647C47.4003 8.31186 46.9206 8.35851 46.4115 8.19359C46.2313 8.13528 46.0561 8.0531 45.8951 7.95926C44.2474 6.99916 42.5754 6.06906 41.0611 4.93961C40.4096 4.45428 39.7807 3.94398 39.1332 3.45366C38.8094 3.20933 38.5111 3.19989 38.1794 3.39258C37.9252 3.54028 37.8692 3.7263 38.0416 4.12611C38.2337 4.57423 38.484 5.00124 38.6817 5.44769C39.092 6.37613 39.4988 7.3068 39.8785 8.24467C40.2853 9.24974 40.5978 10.2776 40.7571 11.341C40.8057 11.6652 40.7837 11.9568 40.4961 12.1961C39.6203 12.9246 38.7823 13.6915 37.8624 14.3717C37.0657 14.9609 36.1809 15.4556 35.3282 15.9826C34.6033 16.4313 33.9009 16.9099 33.1054 17.2664C32.6375 17.4763 32.5053 17.8689 32.6867 18.3137C32.9183 18.8834 33.6873 19.291 34.3411 19.1755Z" fill="#F5A9AB"/>
</g>
<g clip-path="url(#clip4)">
<path d="M7.43986 28.0618C7.74303 27.7134 8.0231 27.3473 8.31962 26.9943C9.6309 25.4316 11.1335 24.0719 12.7457 22.8871C12.8786 22.8967 12.9662 22.8793 13.0208 22.9108C13.9578 23.4475 14.8879 23.9962 15.8272 24.5295C16.3424 24.8218 16.8729 25.0918 17.3954 25.3725C18.3494 25.8861 19.328 26.3719 20.1243 27.0939C20.7158 27.6303 21.5636 27.6161 22.249 27.9435C22.3031 27.969 22.3938 27.9356 22.4668 27.9215C22.7847 27.8598 23.01 27.5445 22.9273 27.2656C22.8983 27.1669 22.8369 27.0802 22.7996 26.9839C22.0201 24.9735 21.3069 22.9381 20.8338 20.8061C20.7274 20.3263 20.6214 19.847 20.4889 19.3763C20.2927 18.677 20.3356 18.4965 20.9842 17.957C22.0854 17.0417 23.1708 16.1149 24.0438 14.9735C24.3909 14.5195 24.7877 14.0946 25.1859 13.6778C25.4234 13.4305 25.7008 13.2173 25.9715 13.003C26.1809 12.8378 26.4073 12.6944 26.6631 12.5166C26.6517 12.3408 26.6619 12.2646 26.6399 12.2024C26.3472 11.3677 26.0465 11.1939 25.1146 11.3047C24.8544 11.3353 24.5952 11.3474 24.3366 11.3782C22.5245 11.5952 20.7121 11.6287 18.8994 12.0191C18.0216 12.2083 17.8133 12.039 17.5632 11.2391C17.1277 9.84474 16.674 8.4566 16.2281 7.06642C16.1952 6.96657 16.1665 6.86552 16.1272 6.76943C15.5528 5.35534 14.9835 3.93935 14.3952 2.53227C14.2912 2.28353 14.1511 2.02255 13.9468 1.86003C13.459 1.47406 12.8504 1.57818 12.2734 1.83535C11.8186 2.03863 11.9531 2.45344 11.915 2.80509C11.8603 3.30951 11.7567 3.81359 11.6957 4.31741C11.6346 4.81843 11.6827 5.33473 11.5333 5.81651C11.364 6.3652 11.3341 6.88952 11.3205 7.42932C11.3111 7.7885 11.3267 8.16521 11.2134 8.50921C11.0104 9.1223 10.9773 9.72787 10.9292 10.3392C10.9146 10.5196 10.8987 10.7019 10.8611 10.8809C10.7521 11.4008 10.4086 11.7389 9.90918 11.9311C9.73241 11.9992 9.54456 12.0456 9.36036 12.074C7.47568 12.3648 5.59099 12.6942 3.70337 12.7694C2.89164 12.8022 2.08175 12.8014 1.26996 12.8279C0.864581 12.8418 0.626784 13.0222 0.490282 13.3807C0.385632 13.6555 0.459227 13.8352 0.844766 14.0375C1.27607 14.2648 1.73934 14.4392 2.17399 14.6617C3.07707 15.125 3.97892 15.5923 4.86424 16.0822C5.81291 16.6072 6.70258 17.2094 7.49562 17.9355C7.73746 18.1569 7.9038 18.3974 7.8309 18.7644C7.60875 19.8817 7.44013 21.005 7.15333 22.1125C6.90494 23.0718 6.52864 24.0131 6.19764 24.9593C5.91661 25.7642 5.67202 26.5782 5.27808 27.3559C5.04659 27.8134 5.19089 28.2017 5.61176 28.4332C6.15034 28.7302 7.00448 28.563 7.43986 28.0618Z" fill="#F5A9AB"/>
</g>
<defs>
<clipPath id="clip0">
<rect width="28" height="28" fill="white" transform="translate(128 0.59375)"/>
</clipPath>
<clipPath id="clip1">
<rect width="28" height="28" fill="white" transform="translate(96 0.59375)"/>
</clipPath>
<clipPath id="clip2">
<rect width="28" height="28" fill="white" transform="translate(64 0.59375)"/>
</clipPath>
<clipPath id="clip3">
<rect width="28" height="28" fill="white" transform="translate(32 0.59375)"/>
</clipPath>
<clipPath id="clip4">
<rect width="28" height="28" fill="white" transform="translate(0 0.59375)"/>
</clipPath>
</defs>
</svg>
