<svg width="156" height="29" viewBox="0 0 156 29" fill="none" xmlns="http://www.w3.org/2000/svg">
<g clip-path="url(#clip0)">
<path d="M130.341 19.3942C130.796 19.3143 131.244 19.206 131.697 19.1183C133.699 18.729 135.723 18.618 137.721 18.7118C137.818 18.8029 137.897 18.8445 137.92 18.9034C138.31 19.9101 138.688 20.9218 139.082 21.9275C139.299 22.4789 139.541 23.0225 139.771 23.5694C140.189 24.569 140.643 25.5624 140.808 26.6246C140.93 27.4137 141.598 27.9362 141.924 28.622C141.95 28.6759 142.042 28.707 142.108 28.7419C142.393 28.8941 142.767 28.7908 142.878 28.522C142.918 28.4271 142.925 28.321 142.956 28.2228C143.616 26.1699 144.342 24.1392 145.316 22.1846C145.536 21.7448 145.755 21.3055 145.948 20.8563C146.236 20.1894 146.383 20.0761 147.226 20.065C148.658 20.0467 150.085 20.0095 151.482 19.6719C152.037 19.5375 152.613 19.457 153.185 19.3837C153.525 19.3409 153.874 19.3498 154.22 19.3537C154.486 19.357 154.753 19.3881 155.063 19.4109C155.165 19.2671 155.221 19.2143 155.243 19.1521C155.541 18.3192 155.416 17.9949 154.623 17.4946C154.401 17.3547 154.192 17.2009 153.972 17.062C152.427 16.0903 150.997 14.9758 149.343 14.1385C148.542 13.7331 148.486 13.4704 148.795 12.6914C149.334 11.3337 149.855 9.96936 150.384 8.60835C150.421 8.51007 150.462 8.41345 150.492 8.31405C150.936 6.85365 151.384 5.39491 151.813 3.93117C151.888 3.67241 151.944 3.38144 151.887 3.12656C151.751 2.51963 151.213 2.21756 150.602 2.0543C150.121 1.92603 149.964 2.33306 149.714 2.58238C149.354 2.93999 148.956 3.26649 148.591 3.61966C148.229 3.9706 147.941 4.40206 147.522 4.68248C147.045 5.00232 146.692 5.39102 146.341 5.80194C146.108 6.07514 145.883 6.37777 145.579 6.57378C145.035 6.9225 144.628 7.37228 144.206 7.81707C144.081 7.94812 143.954 8.07972 143.812 8.19522C143.4 8.53061 142.921 8.57726 142.412 8.41234C142.231 8.35403 142.056 8.27185 141.895 8.17801C140.247 7.21791 138.575 6.28781 137.061 5.15836C136.41 4.67303 135.781 4.16273 135.133 3.67241C134.809 3.42808 134.511 3.41864 134.179 3.61133C133.925 3.75903 133.869 3.94505 134.042 4.34486C134.234 4.79298 134.484 5.21999 134.682 5.66644C135.092 6.59488 135.499 7.52555 135.878 8.46342C136.285 9.46849 136.598 10.4963 136.757 11.5597C136.806 11.884 136.784 12.1755 136.496 12.4148C135.62 13.1434 134.782 13.9102 133.862 14.5905C133.066 15.1796 132.181 15.6744 131.328 16.2013C130.603 16.65 129.901 17.1287 129.105 17.4852C128.638 17.6951 128.505 18.0877 128.687 18.5324C128.918 19.1022 129.687 19.5097 130.341 19.3942Z" fill="#F5A9AB"/>
</g>
<g clip-path="url(#clip1)">
<path d="M103.44 28.2806C103.743 27.9322 104.023 27.566 104.32 27.213C105.631 25.6503 107.133 24.2906 108.746 23.1058C108.879 23.1154 108.966 23.098 109.021 23.1295C109.958 23.6662 110.888 24.2149 111.827 24.7483C112.342 25.0406 112.873 25.3105 113.395 25.5912C114.349 26.1048 115.328 26.5906 116.124 27.3127C116.716 27.8491 117.564 27.8348 118.249 28.1623C118.303 28.1878 118.394 28.1543 118.467 28.1403C118.785 28.0786 119.01 27.7633 118.927 27.4843C118.898 27.3857 118.837 27.299 118.8 27.2027C118.02 25.1923 117.307 23.1569 116.834 21.0248C116.727 20.5451 116.621 20.0657 116.489 19.595C116.293 18.8957 116.336 18.7153 116.984 18.1757C118.085 17.2604 119.171 16.3336 120.044 15.1922C120.391 14.7383 120.788 14.3133 121.186 13.8965C121.423 13.6492 121.701 13.436 121.972 13.2218C122.181 13.0565 122.407 12.9132 122.663 12.7353C122.652 12.5595 122.662 12.4833 122.64 12.4211C122.347 11.5864 122.046 11.4126 121.115 11.5234C120.854 11.5541 120.595 11.5661 120.337 11.5969C118.524 11.8139 116.712 11.8475 114.899 12.2379C114.022 12.4271 113.813 12.2578 113.563 11.4578C113.128 10.0635 112.674 8.67535 112.228 7.28517C112.195 7.18532 112.166 7.08427 112.127 6.98818C111.553 5.57409 110.983 4.1581 110.395 2.75102C110.291 2.50228 110.151 2.2413 109.947 2.07878C109.459 1.69281 108.85 1.79693 108.273 2.0541C107.819 2.25738 107.953 2.67219 107.915 3.02384C107.86 3.52826 107.757 4.03234 107.696 4.53616C107.635 5.03718 107.683 5.55348 107.533 6.03526C107.364 6.58395 107.334 7.10827 107.32 7.64807C107.311 8.00725 107.327 8.38396 107.213 8.72796C107.01 9.34105 106.977 9.94662 106.929 10.5579C106.915 10.7383 106.899 10.9206 106.861 11.0996C106.752 11.6195 106.409 11.9577 105.909 12.1499C105.732 12.218 105.545 12.2644 105.36 12.2928C103.476 12.5836 101.591 12.9129 99.7034 12.9882C98.8916 13.021 98.0818 13.0202 97.27 13.0466C96.8646 13.0605 96.6268 13.2409 96.4903 13.5994C96.3856 13.8742 96.4592 14.054 96.8448 14.2562C97.2761 14.4836 97.7393 14.6579 98.174 14.8804C99.0771 15.3438 99.9789 15.811 100.864 16.3009C101.813 16.826 102.703 17.4281 103.496 18.1542C103.737 18.3757 103.904 18.6161 103.831 18.9831C103.609 20.1004 103.44 21.2237 103.153 22.3313C102.905 23.2905 102.529 24.2319 102.198 25.178C101.917 25.9829 101.672 26.7969 101.278 27.5746C101.047 28.0322 101.191 28.4205 101.612 28.652C102.15 28.949 103.004 28.7818 103.44 28.2806Z" fill="#F5A9AB"/>
</g>
<g clip-path="url(#clip2)">
<path d="M66.3411 19.3942C66.796 19.3143 67.244 19.206 67.6966 19.1183C69.6991 18.729 71.7225 18.618 73.7211 18.7118C73.8183 18.8029 73.8974 18.8445 73.92 18.9034C74.3104 19.9101 74.6879 20.9218 75.0823 21.9275C75.2987 22.4789 75.5411 23.0225 75.7705 23.5694C76.1886 24.569 76.6435 25.5624 76.8079 26.6246C76.93 27.4137 77.5978 27.9362 77.9244 28.622C77.9504 28.6759 78.042 28.707 78.1075 28.7419C78.3934 28.8941 78.7669 28.7908 78.8782 28.522C78.9178 28.4271 78.9246 28.321 78.9562 28.2228C79.6156 26.1699 80.3422 24.1392 81.3164 22.1846C81.5356 21.7448 81.7548 21.3055 81.9481 20.8563C82.2357 20.1894 82.3826 20.0761 83.2262 20.065C84.658 20.0467 86.0848 20.0095 87.4815 19.6719C88.037 19.5375 88.6127 19.457 89.1846 19.3837C89.5247 19.3409 89.8745 19.3498 90.2197 19.3537C90.4864 19.357 90.7526 19.3881 91.0633 19.4109C91.165 19.2671 91.221 19.2143 91.243 19.1521C91.5408 18.3192 91.4165 17.9949 90.6226 17.4946C90.4011 17.3547 90.192 17.2009 89.9717 17.062C88.4269 16.0903 86.9973 14.9758 85.3429 14.1385C84.5416 13.7331 84.4863 13.4704 84.7953 12.6914C85.3344 11.3337 85.8553 9.96936 86.3837 8.60835C86.421 8.51007 86.4622 8.41345 86.4922 8.31405C86.9357 6.85365 87.3844 5.39491 87.8127 3.93117C87.8884 3.67241 87.9437 3.38144 87.8872 3.12656C87.7511 2.51963 87.2126 2.21756 86.6023 2.0543C86.1209 1.92603 85.9644 2.33306 85.7135 2.58238C85.3536 2.93999 84.9558 3.26649 84.5914 3.61966C84.2286 3.9706 83.941 4.40206 83.5217 4.68248C83.0448 5.00232 82.6917 5.39102 82.3414 5.80194C82.108 6.07514 81.8831 6.37777 81.5786 6.57378C81.035 6.9225 80.6282 7.37228 80.2061 7.81707C80.0812 7.94812 79.9541 8.07972 79.8122 8.19522C79.4003 8.53061 78.9206 8.57726 78.4115 8.41234C78.2313 8.35403 78.0561 8.27185 77.8951 8.17801C76.2474 7.21791 74.5754 6.28781 73.0611 5.15836C72.4096 4.67303 71.7807 4.16273 71.1332 3.67241C70.8094 3.42808 70.5111 3.41864 70.1794 3.61133C69.9252 3.75903 69.8692 3.94505 70.0416 4.34486C70.2337 4.79298 70.484 5.21999 70.6817 5.66644C71.092 6.59488 71.4988 7.52555 71.8785 8.46342C72.2853 9.46849 72.5978 10.4963 72.7571 11.5597C72.8057 11.884 72.7837 12.1755 72.4961 12.4148C71.6203 13.1434 70.7823 13.9102 69.8624 14.5905C69.0657 15.1796 68.1809 15.6744 67.3282 16.2013C66.6033 16.65 65.9009 17.1287 65.1054 17.4852C64.6375 17.6951 64.5053 18.0877 64.6867 18.5324C64.9183 19.1022 65.6873 19.5097 66.3411 19.3942Z" fill="#F5A9AB"/>
</g>
<g clip-path="url(#clip3)">
<path d="M39.4399 28.2806C39.743 27.9322 40.0231 27.566 40.3196 27.213C41.6309 25.6503 43.1335 24.2906 44.7457 23.1058C44.8786 23.1154 44.9662 23.098 45.0208 23.1295C45.9578 23.6662 46.8879 24.2149 47.8272 24.7483C48.3424 25.0406 48.8729 25.3105 49.3954 25.5912C50.3494 26.1048 51.328 26.5906 52.1243 27.3127C52.7158 27.8491 53.5636 27.8348 54.249 28.1623C54.3031 28.1878 54.3938 28.1543 54.4668 28.1403C54.7847 28.0786 55.01 27.7633 54.9273 27.4843C54.8983 27.3857 54.8369 27.299 54.7996 27.2027C54.0201 25.1923 53.3069 23.1569 52.8338 21.0248C52.7274 20.5451 52.6214 20.0657 52.4889 19.595C52.2927 18.8957 52.3356 18.7153 52.9842 18.1757C54.0854 17.2604 55.1708 16.3336 56.0438 15.1922C56.3909 14.7383 56.7877 14.3133 57.1859 13.8965C57.4234 13.6492 57.7008 13.436 57.9715 13.2218C58.1809 13.0565 58.4073 12.9132 58.6631 12.7353C58.6517 12.5595 58.6619 12.4833 58.6399 12.4211C58.3472 11.5864 58.0465 11.4126 57.1146 11.5234C56.8544 11.5541 56.5952 11.5661 56.3366 11.5969C54.5245 11.8139 52.7121 11.8475 50.8994 12.2379C50.0216 12.4271 49.8133 12.2578 49.5632 11.4578C49.1277 10.0635 48.674 8.67535 48.2281 7.28517C48.1952 7.18532 48.1665 7.08427 48.1272 6.98818C47.5528 5.57409 46.9835 4.1581 46.3952 2.75102C46.2912 2.50228 46.1511 2.2413 45.9468 2.07878C45.459 1.69281 44.8504 1.79693 44.2734 2.0541C43.8186 2.25738 43.9531 2.67219 43.915 3.02384C43.8603 3.52826 43.7567 4.03234 43.6957 4.53616C43.6346 5.03718 43.6827 5.55348 43.5333 6.03526C43.364 6.58395 43.3341 7.10827 43.3205 7.64807C43.3111 8.00725 43.3267 8.38396 43.2134 8.72796C43.0104 9.34105 42.9773 9.94662 42.9292 10.5579C42.9146 10.7383 42.8987 10.9206 42.8611 11.0996C42.7521 11.6195 42.4086 11.9577 41.9092 12.1499C41.7324 12.218 41.5446 12.2644 41.3604 12.2928C39.4757 12.5836 37.591 12.9129 35.7034 12.9882C34.8916 13.021 34.0818 13.0202 33.27 13.0466C32.8646 13.0605 32.6268 13.2409 32.4903 13.5994C32.3856 13.8742 32.4592 14.054 32.8448 14.2562C33.2761 14.4836 33.7393 14.6579 34.174 14.8804C35.0771 15.3438 35.9789 15.811 36.8642 16.3009C37.8129 16.826 38.7026 17.4281 39.4956 18.1542C39.7375 18.3757 39.9038 18.6161 39.8309 18.9831C39.6088 20.1004 39.4401 21.2237 39.1533 22.3313C38.9049 23.2905 38.5286 24.2319 38.1976 25.178C37.9166 25.9829 37.672 26.7969 37.2781 27.5746C37.0466 28.0322 37.1909 28.4205 37.6118 28.652C38.1503 28.949 39.0045 28.7818 39.4399 28.2806Z" fill="#F5A9AB"/>
</g>
<g clip-path="url(#clip4)">
<path d="M2.3411 19.3942C2.79596 19.3143 3.24403 19.206 3.69663 19.1183C5.69914 18.729 7.72255 18.618 9.7211 18.7118C9.81828 18.8029 9.89739 18.8445 9.91999 18.9034C10.3104 19.9101 10.6879 20.9218 11.0823 21.9275C11.2987 22.4789 11.5411 23.0225 11.7705 23.5694C12.1886 24.569 12.6435 25.5624 12.8079 26.6246C12.93 27.4137 13.5978 27.9362 13.9244 28.622C13.9504 28.6759 14.042 28.707 14.1075 28.7419C14.3934 28.8941 14.7669 28.7908 14.8782 28.522C14.9178 28.4271 14.9246 28.321 14.9562 28.2228C15.6156 26.1699 16.3422 24.1392 17.3164 22.1846C17.5356 21.7448 17.7548 21.3055 17.9481 20.8563C18.2357 20.1894 18.3826 20.0761 19.2262 20.065C20.658 20.0467 22.0848 20.0095 23.4815 19.6719C24.037 19.5375 24.6127 19.457 25.1846 19.3837C25.5247 19.3409 25.8745 19.3498 26.2197 19.3537C26.4864 19.357 26.7526 19.3881 27.0633 19.4109C27.165 19.2671 27.221 19.2143 27.243 19.1521C27.5408 18.3192 27.4165 17.9949 26.6226 17.4946C26.4011 17.3547 26.192 17.2009 25.9717 17.062C24.4269 16.0903 22.9973 14.9758 21.3429 14.1385C20.5416 13.7331 20.4863 13.4704 20.7953 12.6914C21.3344 11.3337 21.8553 9.96936 22.3837 8.60835C22.421 8.51007 22.4622 8.41345 22.4922 8.31405C22.9357 6.85365 23.3844 5.39491 23.8127 3.93117C23.8884 3.67241 23.9437 3.38144 23.8872 3.12656C23.7511 2.51963 23.2126 2.21756 22.6023 2.0543C22.1209 1.92603 21.9644 2.33306 21.7135 2.58238C21.3536 2.93999 20.9558 3.26649 20.5914 3.61966C20.2286 3.9706 19.941 4.40206 19.5217 4.68248C19.0448 5.00232 18.6917 5.39102 18.3414 5.80194C18.108 6.07514 17.8831 6.37777 17.5786 6.57378C17.035 6.9225 16.6282 7.37228 16.2061 7.81707C16.0812 7.94812 15.9541 8.07972 15.8122 8.19522C15.4003 8.53061 14.9206 8.57726 14.4115 8.41234C14.2313 8.35403 14.0561 8.27185 13.8951 8.17801C12.2474 7.21791 10.5754 6.28781 9.06113 5.15836C8.40964 4.67303 7.78075 4.16273 7.13321 3.67241C6.80944 3.42808 6.5111 3.41864 6.17942 3.61133C5.92515 3.75903 5.86922 3.94505 6.04155 4.34486C6.23367 4.79298 6.48398 5.21999 6.68174 5.66644C7.09196 6.59488 7.49879 7.52555 7.8785 8.46342C8.28533 9.46849 8.5978 10.4963 8.75714 11.5597C8.80573 11.884 8.78369 12.1755 8.49609 12.4148C7.62028 13.1434 6.78232 13.9102 5.86243 14.5905C5.06573 15.1796 4.18087 15.6744 3.32823 16.2013C2.60328 16.65 1.90093 17.1287 1.10536 17.4852C0.637503 17.6951 0.505281 18.0877 0.686659 18.5324C0.918325 19.1022 1.68735 19.5097 2.3411 19.3942Z" fill="#F5A9AB"/>
</g>
<defs>
<clipPath id="clip0">
<rect width="28" height="28" fill="white" transform="translate(128 0.8125)"/>
</clipPath>
<clipPath id="clip1">
<rect width="28" height="28" fill="white" transform="translate(96 0.8125)"/>
</clipPath>
<clipPath id="clip2">
<rect width="28" height="28" fill="white" transform="translate(64 0.8125)"/>
</clipPath>
<clipPath id="clip3">
<rect width="28" height="28" fill="white" transform="translate(32 0.8125)"/>
</clipPath>
<clipPath id="clip4">
<rect width="28" height="28" fill="white" transform="translate(0 0.8125)"/>
</clipPath>
</defs>
</svg>
