<svg width="206" height="43" viewBox="0 0 206 43" fill="none" xmlns="http://www.w3.org/2000/svg">
<g clip-path="url(#clip0)">
<path d="M178.097 37.8719C178.508 37.3991 178.888 36.9022 179.291 36.4231C181.07 34.3022 183.11 32.457 185.298 30.849C185.478 30.8621 185.597 30.8384 185.671 30.8812C186.943 31.6095 188.205 32.3542 189.48 33.078C190.179 33.4747 190.899 33.8411 191.608 34.222C192.903 34.9191 194.231 35.5784 195.312 36.5583C196.114 37.2863 197.265 37.267 198.195 37.7113C198.268 37.7459 198.392 37.7005 198.491 37.6815C198.922 37.5977 199.228 37.1698 199.116 36.7913C199.076 36.6574 198.993 36.5397 198.942 36.409C197.884 33.6807 196.916 30.9183 196.274 28.0248C196.13 27.3737 195.986 26.7232 195.806 26.0843C195.54 25.1353 195.598 24.8904 196.479 24.1582C197.973 22.916 199.446 21.6582 200.631 20.1091C201.102 19.493 201.64 18.9163 202.181 18.3507C202.503 18.015 202.88 17.7257 203.247 17.4349C203.531 17.2107 203.838 17.0162 204.186 16.7747C204.17 16.5362 204.184 16.4328 204.154 16.3484C203.757 15.2156 203.349 14.9797 202.084 15.1301C201.731 15.1716 201.379 15.188 201.028 15.2298C198.569 15.5243 196.109 15.5698 193.649 16.0996C192.458 16.3564 192.175 16.1267 191.836 15.041C191.245 13.1487 190.629 11.2648 190.024 9.37812C189.979 9.24261 189.94 9.10547 189.887 8.97506C189.107 7.05594 188.335 5.13424 187.536 3.22464C187.395 2.88706 187.205 2.53288 186.928 2.31232C186.266 1.78849 185.44 1.9298 184.657 2.27881C184.039 2.55469 184.222 3.11766 184.17 3.59489C184.096 4.27946 183.955 4.96357 183.873 5.64732C183.79 6.32728 183.855 7.02798 183.652 7.68182C183.422 8.42646 183.382 9.13804 183.363 9.87063C183.351 10.3581 183.372 10.8693 183.218 11.3362C182.943 12.1682 182.898 12.9901 182.832 13.8197C182.813 14.0646 182.791 14.3119 182.74 14.5549C182.592 15.2604 182.126 15.7194 181.448 15.9802C181.208 16.0727 180.953 16.1356 180.703 16.1742C178.146 16.5688 175.588 17.0158 173.026 17.1179C171.924 17.1624 170.825 17.1613 169.723 17.1973C169.173 17.2161 168.851 17.4609 168.665 17.9474C168.523 18.3204 168.623 18.5644 169.146 18.8389C169.732 19.1474 170.36 19.384 170.95 19.686C172.176 20.3148 173.4 20.9489 174.601 21.6138C175.889 22.3264 177.096 23.1436 178.173 24.129C178.501 24.4295 178.727 24.7558 178.628 25.2539C178.326 26.7703 178.097 28.2948 177.708 29.7978C177.371 31.0997 176.86 32.3772 176.411 33.6613C176.03 34.7536 175.698 35.8583 175.163 36.9138C174.849 37.5348 175.045 38.0618 175.616 38.376C176.347 38.779 177.506 38.5521 178.097 37.8719Z" fill="#F5A9AB"/>
</g>
<g clip-path="url(#clip1)">
<path d="M129.177 25.8118C129.795 25.7033 130.403 25.5564 131.017 25.4373C133.735 24.909 136.481 24.7583 139.193 24.8857C139.325 25.0092 139.432 25.0658 139.463 25.1456C139.993 26.5119 140.505 27.885 141.04 29.2498C141.334 29.9981 141.663 30.7359 141.974 31.4782C142.542 32.8347 143.159 34.1829 143.382 35.6245C143.548 36.6954 144.454 37.4045 144.898 38.3352C144.933 38.4083 145.057 38.4505 145.146 38.498C145.534 38.7045 146.041 38.5643 146.192 38.1996C146.246 38.0707 146.255 37.9268 146.298 37.7934C147.193 35.0073 148.179 32.2514 149.501 29.5987C149.799 29.0018 150.096 28.4057 150.358 27.7961C150.749 26.891 150.948 26.7373 152.093 26.7222C154.036 26.6973 155.972 26.6468 157.868 26.1886C158.622 26.0063 159.403 25.897 160.179 25.7975C160.641 25.7395 161.116 25.7515 161.584 25.7568C161.946 25.7613 162.307 25.8035 162.729 25.8344C162.867 25.6393 162.943 25.5677 162.973 25.4833C163.377 24.3529 163.208 23.9128 162.131 23.2338C161.83 23.0438 161.547 22.8351 161.247 22.6467C159.151 21.3279 157.211 19.8154 154.965 18.679C153.878 18.1288 153.803 17.7724 154.222 16.7151C154.954 14.8725 155.661 13.0209 156.378 11.1738C156.429 11.0404 156.485 10.9093 156.525 10.7744C157.127 8.79245 157.736 6.81273 158.317 4.82623C158.42 4.47506 158.495 4.08017 158.419 3.73426C158.234 2.91057 157.503 2.50061 156.675 2.27905C156.021 2.10497 155.809 2.65736 155.469 2.99573C154.98 3.48105 154.44 3.92417 153.946 4.40346C153.453 4.87974 153.063 5.46529 152.494 5.84586C151.847 6.27993 151.367 6.80746 150.892 7.36512C150.575 7.7359 150.27 8.14661 149.857 8.41263C149.119 8.88589 148.567 9.49631 147.994 10.0999C147.825 10.2778 147.652 10.4564 147.46 10.6132C146.901 11.0683 146.25 11.1316 145.559 10.9078C145.314 10.8287 145.076 10.7172 144.858 10.5898C142.622 9.28681 140.353 8.02453 138.297 6.4917C137.413 5.83305 136.56 5.14048 135.681 4.47505C135.242 4.14347 134.837 4.13066 134.387 4.39216C134.041 4.59262 133.966 4.84507 134.199 5.38767C134.46 5.99583 134.8 6.57535 135.068 7.18124C135.625 8.44127 136.177 9.70431 136.692 10.9771C137.245 12.3412 137.669 13.7361 137.885 15.1792C137.951 15.6193 137.921 16.015 137.531 16.3398C136.342 17.3285 135.205 18.3692 133.956 19.2924C132.875 20.092 131.674 20.7634 130.517 21.4786C129.533 22.0875 128.58 22.7371 127.5 23.2209C126.865 23.5058 126.686 24.0386 126.932 24.6422C127.246 25.4154 128.29 25.9686 129.177 25.8118Z" fill="#F5A9AB"/>
</g>
<g clip-path="url(#clip2)">
<path d="M94.0969 37.8719C94.5084 37.3991 94.8885 36.9022 95.2909 36.4231C97.0705 34.3022 99.1097 32.457 101.298 30.849C101.478 30.8621 101.597 30.8384 101.671 30.8812C102.943 31.6095 104.205 32.3542 105.48 33.078C106.179 33.4747 106.899 33.8411 107.608 34.222C108.903 34.9191 110.231 35.5784 111.312 36.5583C112.114 37.2863 113.265 37.267 114.195 37.7113C114.268 37.7459 114.392 37.7005 114.491 37.6815C114.922 37.5977 115.228 37.1698 115.116 36.7913C115.076 36.6574 114.993 36.5397 114.942 36.409C113.884 33.6807 112.916 30.9183 112.274 28.0248C112.13 27.3737 111.986 26.7232 111.806 26.0843C111.54 25.1353 111.598 24.8904 112.479 24.1582C113.973 22.916 115.446 21.6582 116.631 20.1091C117.102 19.493 117.64 18.9163 118.181 18.3507C118.503 18.015 118.88 17.7257 119.247 17.4349C119.531 17.2107 119.838 17.0162 120.186 16.7747C120.17 16.5362 120.184 16.4328 120.154 16.3484C119.757 15.2156 119.349 14.9797 118.084 15.1301C117.731 15.1716 117.379 15.188 117.028 15.2298C114.569 15.5243 112.109 15.5698 109.649 16.0996C108.458 16.3564 108.175 16.1267 107.836 15.041C107.245 13.1487 106.629 11.2648 106.024 9.37812C105.979 9.24261 105.94 9.10547 105.887 8.97506C105.107 7.05594 104.335 5.13424 103.536 3.22464C103.395 2.88706 103.205 2.53288 102.928 2.31232C102.266 1.78849 101.44 1.9298 100.657 2.27881C100.039 2.55469 100.222 3.11766 100.17 3.59489C100.096 4.27946 99.9555 4.96357 99.8727 5.64732C99.7898 6.32728 99.855 7.02798 99.6523 7.68182C99.4225 8.42646 99.382 9.13804 99.3635 9.87063C99.3507 10.3581 99.372 10.8693 99.2182 11.3362C98.9427 12.1682 98.8978 12.9901 98.8325 13.8197C98.8127 14.0646 98.791 14.3119 98.7401 14.5549C98.5921 15.2604 98.1259 15.7194 97.4481 15.9802C97.2082 16.0727 96.9533 16.1356 96.7033 16.1742C94.1455 16.5688 91.5877 17.0158 89.026 17.1179C87.9243 17.1624 86.8252 17.1613 85.7235 17.1973C85.1733 17.2161 84.8506 17.4609 84.6653 17.9474C84.5233 18.3204 84.6232 18.5644 85.1464 18.8389C85.7318 19.1474 86.3605 19.384 86.9504 19.686C88.176 20.3148 89.3999 20.9489 90.6014 21.6138C91.8889 22.3264 93.0963 23.1436 94.1726 24.129C94.5008 24.4295 94.7265 24.7558 94.6276 25.2539C94.3261 26.7703 94.0973 28.2948 93.708 29.7978C93.3709 31.0997 92.8603 32.3772 92.411 33.6613C92.0296 34.7536 91.6977 35.8583 91.1631 36.9138C90.8489 37.5348 91.0447 38.0618 91.6159 38.376C92.3469 38.779 93.506 38.5521 94.0969 37.8719Z" fill="#F5A9AB"/>
</g>
<g clip-path="url(#clip3)">
<path d="M45.1774 25.8118C45.7947 25.7033 46.4028 25.5564 47.017 25.4373C49.7347 24.909 52.4808 24.7583 55.1931 24.8857C55.325 25.0092 55.4323 25.0658 55.463 25.1456C55.9929 26.5119 56.5052 27.885 57.0404 29.2498C57.3341 29.9981 57.6631 30.7359 57.9744 31.4782C58.5419 32.8347 59.1592 34.1829 59.3823 35.6245C59.548 36.6954 60.4544 37.4045 60.8976 38.3352C60.9329 38.4083 61.0571 38.4505 61.1461 38.498C61.5341 38.7045 62.041 38.5643 62.1921 38.1996C62.2457 38.0707 62.2549 37.9268 62.2979 37.7934C63.1928 35.0073 64.1789 32.2514 65.501 29.5987C65.7985 29.0018 66.096 28.4057 66.3583 27.7961C66.7486 26.891 66.948 26.7373 68.0929 26.7222C70.0361 26.6973 71.9723 26.6468 73.868 26.1886C74.6218 26.0063 75.4032 25.897 76.1792 25.7975C76.6409 25.7395 77.1155 25.7515 77.5841 25.7568C77.946 25.7613 78.3072 25.8035 78.729 25.8344C78.867 25.6393 78.9429 25.5677 78.9728 25.4833C79.377 24.3529 79.2083 23.9128 78.1308 23.2338C77.8302 23.0438 77.5465 22.8351 77.2474 22.6467C75.1509 21.3279 73.2108 19.8154 70.9655 18.679C69.8781 18.1288 69.8029 17.7724 70.2224 16.7151C70.954 14.8725 71.661 13.0209 72.378 11.1738C72.4286 11.0404 72.4846 10.9093 72.5252 10.7744C73.1272 8.79245 73.7361 6.81273 74.3173 4.82623C74.4201 4.47506 74.4953 4.08017 74.4186 3.73426C74.2338 2.91057 73.503 2.50061 72.6748 2.27905C72.0214 2.10497 71.809 2.65736 71.4685 2.99573C70.9801 3.48105 70.4402 3.92417 69.9456 4.40346C69.4533 4.87974 69.0629 5.46529 68.494 5.84586C67.8467 6.27993 67.3675 6.80746 66.892 7.36512C66.5753 7.7359 66.2701 8.14661 65.8568 8.41263C65.1191 8.88589 64.567 9.49631 63.9941 10.0999C63.8247 10.2778 63.6521 10.4564 63.4596 10.6132C62.9006 11.0683 62.2496 11.1316 61.5586 10.9078C61.314 10.8287 61.0763 10.7172 60.8577 10.5898C58.6216 9.28681 56.3526 8.02453 54.2974 6.4917C53.4133 5.83305 52.5598 5.14048 51.681 4.47505C51.2416 4.14347 50.8367 4.13066 50.3865 4.39216C50.0415 4.59262 49.9655 4.84507 50.1994 5.38767C50.4601 5.99583 50.7999 6.57535 51.0683 7.18124C51.625 8.44127 52.1771 9.70431 52.6924 10.9771C53.2445 12.3412 53.6686 13.7361 53.8849 15.1792C53.9508 15.6193 53.9209 16.015 53.5306 16.3398C52.342 17.3285 51.2048 18.3692 49.9563 19.2924C48.8751 20.092 47.6742 20.7634 46.5171 21.4786C45.5332 22.0875 44.58 22.7371 43.5003 23.2209C42.8654 23.5058 42.6859 24.0386 42.9321 24.6422C43.2465 25.4154 44.2901 25.9686 45.1774 25.8118Z" fill="#F5A9AB"/>
</g>
<g clip-path="url(#clip4)">
<path d="M10.0969 37.8719C10.5084 37.3991 10.8885 36.9022 11.2909 36.4231C13.0705 34.3022 15.1097 32.457 17.2977 30.849C17.478 30.8621 17.597 30.8384 17.6711 30.8812C18.9427 31.6095 20.2049 32.3542 21.4798 33.078C22.179 33.4747 22.8989 33.8411 23.608 34.222C24.9027 34.9191 26.2309 35.5784 27.3116 36.5583C28.1142 37.2863 29.2649 37.267 30.1951 37.7113C30.2685 37.7459 30.3916 37.7005 30.4906 37.6815C30.9221 37.5977 31.2278 37.1698 31.1156 36.7913C31.0763 36.6574 30.9928 36.5397 30.9423 36.409C29.8844 33.6807 28.9164 30.9183 28.2745 28.0248C28.1301 27.3737 27.9862 26.7232 27.8063 26.0843C27.5401 25.1353 27.5982 24.8904 28.4785 24.1582C29.973 22.916 31.446 21.6582 32.6308 20.1091C33.1019 19.493 33.6404 18.9163 34.1809 18.3507C34.5031 18.015 34.8796 17.7257 35.247 17.4349C35.5312 17.2107 35.8384 17.0162 36.1856 16.7747C36.1701 16.5362 36.184 16.4328 36.1541 16.3484C35.7568 15.2156 35.3487 14.9797 34.0841 15.1301C33.731 15.1716 33.3791 15.188 33.0281 15.2298C30.5689 15.5243 28.1093 15.5698 25.6492 16.0996C24.4579 16.3564 24.1752 16.1267 23.8358 15.041C23.2448 13.1487 22.629 11.2648 22.0238 9.37812C21.9792 9.24261 21.9401 9.10547 21.8868 8.97506C21.1074 7.05594 20.3347 5.13424 19.5363 3.22464C19.3951 2.88706 19.205 2.53288 18.9277 2.31232C18.2657 1.78849 17.4398 1.9298 16.6567 2.27881C16.0394 2.55469 16.222 3.11766 16.1703 3.59489C16.0961 4.27946 15.9555 4.96357 15.8727 5.64732C15.7898 6.32728 15.855 7.02798 15.6523 7.68182C15.4225 8.42646 15.382 9.13804 15.3635 9.87063C15.3507 10.3581 15.372 10.8693 15.2182 11.3362C14.9427 12.1682 14.8978 12.9901 14.8325 13.8197C14.8127 14.0646 14.791 14.3119 14.7401 14.5549C14.5921 15.2604 14.1259 15.7194 13.4481 15.9802C13.2082 16.0727 12.9533 16.1356 12.7033 16.1742C10.1455 16.5688 7.58774 17.0158 5.02596 17.1179C3.92433 17.1624 2.8252 17.1613 1.72347 17.1973C1.17332 17.2161 0.850597 17.4609 0.665343 17.9474C0.52332 18.3204 0.6232 18.5644 1.14643 18.8389C1.73178 19.1474 2.36049 19.384 2.95037 19.686C4.17599 20.3148 5.39993 20.9489 6.60143 21.6138C7.88892 22.3264 9.09633 23.1436 10.1726 24.129C10.5008 24.4295 10.7265 24.7558 10.6276 25.2539C10.3261 26.7703 10.0973 28.2948 9.70805 29.7978C9.37095 31.0997 8.86026 32.3772 8.41105 33.6613C8.02965 34.7536 7.6977 35.8583 7.16307 36.9138C6.8489 37.5348 7.04475 38.0618 7.61593 38.376C8.34685 38.779 9.50605 38.5521 10.0969 37.8719Z" fill="#F5A9AB"/>
</g>
<defs>
<clipPath id="clip0">
<rect width="38" height="38" fill="white" transform="translate(168 0.59375)"/>
</clipPath>
<clipPath id="clip1">
<rect width="38" height="38" fill="white" transform="translate(126 0.59375)"/>
</clipPath>
<clipPath id="clip2">
<rect width="38" height="38" fill="white" transform="translate(84 0.59375)"/>
</clipPath>
<clipPath id="clip3">
<rect width="38" height="38" fill="white" transform="translate(42 0.59375)"/>
</clipPath>
<clipPath id="clip4">
<rect width="38" height="38" fill="white" transform="translate(0 0.59375)"/>
</clipPath>
</defs>
</svg>
