<svg width="107" height="36" viewBox="0 0 107 36" fill="none" xmlns="http://www.w3.org/2000/svg">
<g clip-path="url(#clip0)">
<path opacity="0.396676" d="M15.5988 29.101C7.5849 29.101 1.08831 22.5865 1.08831 14.5505C1.08831 6.51449 7.5849 0 15.5988 0C23.6128 0 30.1094 6.51449 30.1094 14.5505C30.1094 22.5865 23.6128 29.101 15.5988 29.101Z" fill="#FF6743"/>
<path d="M25.8433 35.9999C23.5897 35.9999 21.7628 34.1867 21.7628 31.9499C21.7628 29.7131 23.5897 27.8999 25.8433 27.8999C28.0969 27.8999 29.9238 29.7131 29.9238 31.9499C29.9238 34.1867 28.0969 35.9999 25.8433 35.9999Z" fill="#FF6743"/>
<path d="M41.586 13.5954C41.586 12.1507 42.6881 11.3576 45.0952 11.3576C47.3284 11.3576 48.6045 12.1791 48.6335 14.0203H52.6357C52.6357 10.3095 49.7645 8.1001 45.1533 8.1001C40.629 8.1001 37.5838 10.3662 37.5838 13.6804C37.5838 21.4134 48.9235 17.9293 48.9235 22.3765C48.9235 23.8495 47.5604 24.6426 45.1823 24.6426C42.5431 24.6426 41.18 23.6795 41.18 21.9233H37.1777C37.1777 25.7756 40.0489 27.9001 44.9792 27.9001C49.7065 27.9001 52.8967 25.7756 52.8967 22.3765C52.8967 14.3602 41.586 17.8443 41.586 13.5954ZM68.0599 24.5293C67.7409 24.6426 67.5959 24.6709 67.3349 24.6709C66.9288 24.6709 66.6678 24.3877 66.6678 23.8211V19.3456C66.6678 15.8331 64.4637 13.7087 60.3164 13.7087C56.6332 13.7087 54.139 15.4366 53.907 18.5808H57.5032C57.6482 17.3911 58.6053 16.6546 60.1134 16.6546C61.9115 16.6546 62.8106 17.6177 62.8106 19.0623V19.6855H60.9834C57.0972 19.6855 53.53 20.6769 53.53 24.0761C53.53 26.3705 55.2121 27.8718 58.3443 27.8718C61.3605 27.8718 62.5496 26.4838 63.0136 25.634H63.0426C63.5356 27.1636 64.7247 27.8718 66.2618 27.8718C67.0738 27.8718 67.7409 27.7585 68.2919 27.5885L68.0599 24.5293ZM59.4463 25.0392C58.0833 25.0392 57.3872 24.5293 57.3872 23.6228C57.3872 22.4048 58.6343 21.81 60.7514 21.81H62.8106V22.6881C62.8106 23.7928 61.5345 25.0392 59.4463 25.0392ZM86.2683 13.7087C83.9191 13.7087 82.382 14.9267 81.657 16.598C80.9899 14.8701 79.4818 13.7087 77.1907 13.7087C75.2185 13.7087 73.8265 14.5868 73.0144 15.8615L72.8984 13.8503H69.0701V27.7301H73.0434V19.9688C73.0434 18.2409 74.1455 17.0795 75.7406 17.0795C77.2197 17.0795 78.0897 18.0992 78.0897 19.8271V27.7301H82.063V19.9688C82.063 18.2409 83.1651 17.0795 84.7602 17.0795C86.2103 17.0795 87.1093 18.0709 87.1093 19.8271V27.7301H91.1116V18.9774C91.1116 15.8898 89.4295 13.7087 86.2683 13.7087ZM106.768 24.5293C106.449 24.6426 106.304 24.6709 106.043 24.6709C105.637 24.6709 105.376 24.3877 105.376 23.8211V19.3456C105.376 15.8331 103.172 13.7087 99.0243 13.7087C95.341 13.7087 92.8469 15.4366 92.6148 18.5808H96.2111C96.3561 17.3911 97.3131 16.6546 98.8212 16.6546C100.619 16.6546 101.518 17.6177 101.518 19.0623V19.6855H99.6913C95.8051 19.6855 92.2378 20.6769 92.2378 24.0761C92.2378 26.3705 93.9199 27.8718 97.0521 27.8718C100.068 27.8718 101.257 26.4838 101.721 25.634H101.75C102.243 27.1636 103.433 27.8718 104.97 27.8718C105.782 27.8718 106.449 27.7585 107 27.5885L106.768 24.5293ZM98.1542 25.0392C96.7911 25.0392 96.0951 24.5293 96.0951 23.6228C96.0951 22.4048 97.3421 21.81 99.4593 21.81H101.518V22.6881C101.518 23.7928 100.242 25.0392 98.1542 25.0392Z" fill="#111237"/>
</g>
<defs>
<clipPath id="clip0">
<rect width="107" height="36" fill="white"/>
</clipPath>
</defs>
</svg>
